# This file uses centimeters as units for non-parametric coordinates.

mtllib backfloor.mtl
g default
v -48.491772 4.789085 -168.587982
v -48.491772 0.182045 -168.587982
v -10.822634 0.182045 -168.587982
v -10.822634 4.789085 -168.587982
v -10.822634 4.789085 -136.353943
v -48.491768 4.789085 -136.353943
v -48.491772 0.182045 -136.353943
v -10.822634 0.182045 -136.353943
vt 0.420003 0.501822
vt 0.480688 0.501822
vt 0.480688 0.926416
vt 0.420003 0.926416
vt 0.069591 0.001992
vt 0.494185 0.001992
vt 0.494185 0.498179
vt 0.069591 0.498179
vt 0.486287 0.501822
vt 0.910881 0.501822
vt 0.910881 0.998008
vt 0.486287 0.998008
vt 0.001818 0.001992
vt 0.062503 0.001992
vt 0.062503 0.498178
vt 0.001818 0.498178
vn 0.000000 0.000000 -1.000000
vn 0.000000 0.000000 -1.000000
vn 0.000000 0.000000 -1.000000
vn 0.000000 0.000000 -1.000000
vn 0.000000 1.000000 -0.000000
vn 0.000000 1.000000 -0.000000
vn 0.000000 1.000000 0.000000
vn 0.000000 1.000000 -0.000000
vn -1.000000 0.000001 0.000000
vn -1.000000 0.000001 0.000000
vn -1.000000 0.000000 0.000000
vn -1.000000 0.000000 0.000000
vn -0.000000 -1.000000 -0.000000
vn -0.000000 -1.000000 -0.000000
vn -0.000000 -1.000000 -0.000000
vn 0.000000 -1.000000 0.000000
s off
g U:pCube22
usemtl U:lambert10SG
f 4/13/1 3/14/2 2/15/3 1/16/4
f 5/5/5 4/6/6 1/7/7 6/8/8
f 7/1/9 6/2/10 1/3/11 2/4/12
f 3/9/13 8/10/14 7/11/15 2/12/16
g default
v -48.491772 4.789085 -105.488083
v -48.491772 0.182045 -105.488083
v -10.822634 4.789085 -105.488083
v -10.822634 0.182045 -105.488083
v -10.822634 4.789085 -136.353943
v -48.491768 4.789085 -136.353943
v -48.491772 0.182045 -136.353943
v -10.822634 0.182045 -136.353943
vt 0.929148 0.551230
vt 0.995834 0.551230
vt 0.995834 0.998008
vt 0.929148 0.998008
vt 0.076081 0.001992
vt 0.522860 0.001992
vt 0.522860 0.547247
vt 0.076081 0.547247
vt 0.529198 0.001992
vt 0.975976 0.001992
vt 0.975976 0.547247
vt 0.529198 0.547247
vt 0.001988 0.001992
vt 0.068674 0.001992
vt 0.068674 0.547247
vt 0.001988 0.547247
vn -1.000000 0.000000 0.000000
vn -1.000000 0.000000 0.000000
vn -1.000000 0.000001 -0.000000
vn -1.000000 0.000001 -0.000000
vn 0.000000 0.000000 1.000000
vn 0.000000 0.000000 1.000000
vn 0.000000 0.000000 1.000000
vn 0.000000 0.000000 1.000000
vn -0.000000 -1.000000 0.000000
vn -0.000000 -1.000000 0.000000
vn 0.000000 -1.000000 0.000000
vn -0.000000 -1.000000 0.000000
vn 0.000000 1.000000 0.000000
vn 0.000000 1.000000 0.000000
vn 0.000000 1.000000 0.000000
vn 0.000000 1.000000 0.000000
s off
g U:pCube21
usemtl U:lambert9SG
f 10/17/17 9/18/18 14/19/19 15/20/20
f 12/29/21 11/30/22 9/31/23 10/32/24
f 16/21/25 12/22/26 10/23/27 15/24/28
f 11/25/29 13/26/30 14/27/31 9/28/32
g default
v 16.861042 4.789085 -105.488083
v 16.861042 0.182045 -105.488083
v 16.861042 4.789085 -168.587982
v 16.861042 0.182045 -168.587982
v -10.822634 4.789085 -105.488083
v -10.822634 0.182045 -105.488083
v -10.822634 0.182045 -168.587982
v -10.822634 4.789085 -168.587982
vt 0.001929 0.001992
vt 0.438909 0.001992
vt 0.438909 0.998008
vt 0.001929 0.998008
vt 0.882685 0.001992
vt 0.882685 0.998008
vt 0.445705 0.998008
vt 0.445705 0.001992
vt 0.889292 0.001992
vt 0.962013 0.001992
vt 0.962013 0.438972
vt 0.889292 0.438972
vt 0.893872 0.442838
vt 0.966593 0.442838
vt 0.966593 0.879817
vt 0.893872 0.879817
vn 0.000000 0.000000 1.000000
vn 0.000000 0.000000 1.000000
vn 0.000000 0.000000 1.000000
vn 0.000000 0.000000 1.000000
vn 0.000000 1.000000 0.000000
vn 0.000000 1.000000 0.000000
vn 0.000000 1.000000 0.000000
vn 0.000000 1.000000 0.000000
vn 0.000000 0.000000 -1.000000
vn 0.000000 0.000000 -1.000000
vn 0.000000 0.000000 -1.000000
vn 0.000000 0.000000 -1.000000
vn 0.000000 -1.000000 0.000000
vn 0.000000 -1.000000 0.000000
vn 0.000000 -1.000000 0.000000
vn 0.000000 -1.000000 0.000000
s off
g U:pCube20
usemtl U:lambert8SG
f 18/41/33 17/42/34 21/43/35 22/44/36
f 21/33/37 17/34/38 19/35/39 24/36/40
f 19/45/41 20/46/42 23/47/43 24/48/44
f 20/37/45 18/38/46 22/39/47 23/40/48
g default
v 16.861042 4.789085 -105.488083
v 31.698631 4.789085 -105.488083
v 31.698631 0.182045 -105.488083
v 16.861042 0.182045 -105.488083
v 16.861042 4.789085 -168.587982
v 31.698631 4.789085 -168.587982
v 31.698631 0.182045 -168.587982
v 16.861042 0.182045 -168.587982
vt 0.315437 0.998008
vt 0.242716 0.998008
vt 0.242716 0.001992
vt 0.315437 0.001992
vt 0.001270 0.001992
vt 0.235478 0.001992
vt 0.235478 0.998008
vt 0.001270 0.998008
vt 0.556740 0.998008
vt 0.322533 0.998008
vt 0.322533 0.001992
vt 0.556740 0.001992
vt 0.563797 0.236199
vt 0.563797 0.001992
vt 0.636518 0.001992
vt 0.636518 0.236199
vn 0.000000 0.000000 -1.000000
vn 0.000000 0.000000 -1.000000
vn 0.000000 0.000000 -1.000000
vn 0.000000 0.000000 -1.000000
vn 0.000000 1.000000 0.000000
vn 0.000000 1.000000 0.000000
vn 0.000000 1.000000 0.000000
vn 0.000000 1.000000 0.000000
vn 1.000000 0.000000 0.000000
vn 1.000000 0.000000 0.000000
vn 1.000000 0.000000 0.000000
vn 1.000000 0.000000 0.000000
vn 0.000000 -1.000000 0.000000
vn 0.000000 -1.000000 0.000000
vn 0.000000 -1.000000 0.000000
vn 0.000000 -1.000000 0.000000
s off
g U:pCube19
usemtl U:lambert7SG
f 29/61/49 30/62/50 31/63/51 32/64/52
f 25/53/53 26/54/54 30/55/55 29/56/56
f 26/49/57 27/50/58 31/51/59 30/52/60
f 27/57/61 28/58/62 32/59/63 31/60/64
g default
v 31.698631 4.789085 -82.659126
v 31.698631 0.182045 -82.659126
v 16.860977 4.789085 -82.659126
v 16.860977 0.182045 -82.659126
v 16.861042 4.789085 -105.488083
v 31.698631 4.789085 -105.488083
v 31.698631 0.182045 -105.488083
v 16.861042 0.182045 -105.488083
vt 0.430020 0.498361
vt 0.329849 0.498361
vt 0.329849 0.001992
vt 0.430020 0.001992
vt 0.719281 0.501639
vt 0.819452 0.501639
vt 0.819452 0.998008
vt 0.719281 0.998008
vt 0.001636 0.001992
vt 0.324250 0.001992
vt 0.324250 0.498361
vt 0.001637 0.498361
vt 0.758081 0.498361
vt 0.435466 0.498361
vt 0.435468 0.001992
vt 0.758081 0.001992
vn 0.000000 1.000000 0.000000
vn 0.000000 1.000000 0.000000
vn 0.000000 1.000000 0.000000
vn 0.000000 1.000000 0.000000
vn 1.000000 0.000000 0.000000
vn 1.000000 0.000000 0.000000
vn 1.000000 0.000000 0.000000
vn 1.000000 0.000000 0.000000
vn 0.000000 -1.000000 0.000000
vn 0.000000 -1.000000 0.000000
vn 0.000000 -1.000000 0.000000
vn 0.000000 -1.000000 0.000000
vn -1.000000 0.000000 -0.000003
vn -1.000000 0.000000 -0.000003
vn -1.000000 0.000000 -0.000003
vn -1.000000 0.000000 -0.000003
s off
g U:pCube18
usemtl U:lambert6SG
f 35/73/65 33/74/66 38/75/67 37/76/68
f 33/65/69 34/66/70 39/67/71 38/68/72
f 34/77/73 36/78/74 40/79/75 39/80/76
f 36/69/77 35/70/78 37/71/79 40/72/80
