# This file uses centimeters as units for non-parametric coordinates.

mtllib floor.mtl
g default
v 17.802080 0.182046 0.039085
v 38.974377 0.182046 0.039085
v 38.974377 -1.168179 0.039085
v 17.802080 0.182046 -21.707314
v 38.974377 0.182046 -21.707314
v 38.974377 -1.168179 -21.707314
vt 0.938782 0.001908
vt 0.998008 0.001908
vt 0.998008 0.955786
vt 0.938782 0.955786
vt 0.001992 0.955786
vt 0.001992 0.001908
vt 0.930687 0.001908
vt 0.930687 0.955786
vn 0.000000 1.000000 0.000000
vn 0.000000 1.000000 0.000000
vn 0.000000 1.000000 0.000000
vn 0.000000 1.000000 0.000000
vn 1.000000 0.000000 0.000000
vn 1.000000 0.000000 0.000000
vn 1.000000 0.000000 0.000000
vn 1.000000 0.000000 0.000000
s off
g pCube17
usemtl lambert16SG
f 4/5/1 1/6/2 2/7/3 5/8/4
f 6/1/5 5/2/6 2/3/7 3/4/8
g default
v -17.802094 0.182046 -21.707310
v 17.802080 0.182046 -21.707310
v -17.802094 0.182046 0.039089
v 17.802080 0.182046 0.039089
vt 0.001217 0.001992
vt 0.609566 0.001992
vt 0.609566 0.998008
vt 0.001217 0.998008
vn 0.000000 1.000000 0.000000
vn 0.000000 1.000000 0.000000
vn 0.000000 1.000000 0.000000
vn 0.000000 1.000000 0.000000
s off
g pCube15
usemtl lambert15SG
f 10/9/9 8/10/10 7/11/11 9/12/12
g default
v 17.802080 0.182046 -43.453712
v 17.802086 -1.168179 -43.453712
v -17.802094 0.182046 -43.453712
v -17.802092 -1.168179 -43.453712
v -17.802094 0.182046 -21.707310
v 17.802080 0.182046 -21.707310
vt 0.001306 0.001992
vt 0.609655 0.001992
vt 0.609655 0.998008
vt 0.001306 0.998008
vt 0.654547 0.998008
vt 0.616775 0.998008
vt 0.616775 0.001992
vt 0.654547 0.001992
vn 0.000000 1.000000 0.000000
vn 0.000000 1.000000 0.000000
vn 0.000000 1.000000 0.000000
vn 0.000000 1.000000 0.000000
vn 0.000000 0.000000 -1.000000
vn 0.000000 0.000000 -1.000000
vn 0.000000 0.000000 -1.000000
vn 0.000000 0.000000 -1.000000
s off
g pCube14
usemtl lambert18SG
f 16/13/13 11/14/14 13/15/15 15/16/16
f 14/17/17 13/18/18 11/19/19 12/20/20
g default
v 38.974377 0.182046 -43.453712
v 38.974377 -1.168179 -43.453712
v 17.802080 0.182046 -43.453712
v 17.802086 -1.168179 -43.453712
v 17.802080 0.182046 -21.707314
v 38.974377 0.182046 -21.707314
v 38.974377 -1.168179 -21.707314
vt 0.879599 0.001786
vt 0.935037 0.001786
vt 0.935037 0.894648
vt 0.879599 0.894648
vt 0.001992 0.894648
vt 0.001992 0.001786
vt 0.871283 0.001786
vt 0.871283 0.894648
vt 0.998008 0.871076
vt 0.942571 0.871076
vt 0.942571 0.001786
vt 0.998008 0.001786
vn 0.000000 1.000000 0.000000
vn 0.000000 1.000000 0.000000
vn 0.000000 1.000000 0.000000
vn 0.000000 1.000000 0.000000
vn 0.000000 0.000000 -1.000000
vn 0.000000 0.000000 -1.000000
vn 0.000000 0.000000 -1.000000
vn 0.000000 0.000000 -1.000000
vn 1.000000 0.000000 0.000000
vn 1.000000 0.000000 0.000000
vn 1.000000 0.000000 0.000000
vn 1.000000 0.000000 0.000000
s off
g pCube16
usemtl lambert19SG
f 19/25/21 21/26/22 22/27/23 17/28/24
f 20/29/25 19/30/26 17/31/27 18/32/28
f 18/21/29 17/22/30 22/23/31 23/24/32
g default
v 38.974377 -1.168179 21.785488
v 38.974377 0.182046 21.785488
v 17.802080 0.182046 21.785488
v 17.802086 -1.168179 21.785488
v 17.802080 0.182046 0.039085
v 38.974377 0.182046 0.039085
v 38.974377 -1.168179 0.039085
vt 0.879599 0.001786
vt 0.935037 0.001786
vt 0.935037 0.894648
vt 0.879599 0.894648
vt 0.001992 0.894648
vt 0.001992 0.001786
vt 0.871283 0.001786
vt 0.871283 0.894648
vt 0.998008 0.871076
vt 0.942570 0.871076
vt 0.942570 0.001786
vt 0.998008 0.001786
vn 0.000000 0.000000 1.000000
vn 0.000000 0.000000 1.000000
vn 0.000000 0.000000 1.000000
vn 0.000000 0.000000 1.000000
vn 0.000000 1.000000 0.000000
vn 0.000000 1.000000 0.000000
vn 0.000000 1.000000 0.000000
vn 0.000000 1.000000 0.000000
vn 1.000000 0.000000 0.000000
vn 1.000000 0.000000 0.000000
vn 1.000000 0.000000 0.000000
vn 1.000000 0.000000 0.000000
s off
g pCube10
usemtl lambert13SG
f 26/41/33 27/42/34 24/43/35 25/44/36
f 28/37/37 26/38/38 25/39/39 29/40/40
f 30/33/41 29/34/42 25/35/43 24/36/44
g default
v 17.802080 0.182046 21.785488
v 17.802086 -1.168179 21.785488
v -17.802094 0.182046 21.785488
v -17.802092 -1.168179 21.785488
v -17.802094 0.182046 0.039089
v 17.802080 0.182046 0.039089
vt 0.045835 0.001992
vt 0.654184 0.001992
vt 0.654184 0.998008
vt 0.045835 0.998008
vt 0.039078 0.998008
vt 0.001306 0.998008
vt 0.001306 0.001992
vt 0.039078 0.001992
vn 0.000000 0.000000 1.000000
vn 0.000000 0.000000 1.000000
vn 0.000000 0.000000 1.000000
vn 0.000000 0.000000 1.000000
vn 0.000000 1.000000 0.000000
vn 0.000000 1.000000 0.000000
vn 0.000000 1.000000 0.000000
vn 0.000000 1.000000 0.000000
s off
g pCube9
usemtl lambert12SG
f 33/49/45 34/50/46 32/51/47 31/52/48
f 31/45/49 36/46/50 35/47/51 33/48/52
g default
v -38.974377 -1.168179 21.785488
v -38.974388 0.182046 21.785488
v -17.802094 0.182046 21.785488
v -17.802092 -1.168179 21.785488
v -17.802094 0.182046 0.039089
v -38.974388 0.182046 0.039089
v -38.974377 -1.168179 0.039089
vt 0.935037 0.894648
vt 0.879600 0.894648
vt 0.879600 0.001786
vt 0.935037 0.001786
vt 0.871283 0.001786
vt 0.871283 0.894648
vt 0.001992 0.894648
vt 0.001992 0.001786
vt 0.942571 0.001786
vt 0.998008 0.001786
vt 0.998008 0.871077
vt 0.942571 0.871076
vn 0.000000 0.000000 1.000000
vn 0.000000 0.000000 1.000000
vn 0.000000 0.000000 1.000000
vn 0.000000 0.000000 1.000000
vn 0.000000 1.000000 0.000000
vn 0.000000 1.000000 0.000000
vn 0.000000 1.000000 0.000000
vn 0.000000 1.000000 0.000000
vn -1.000000 -0.000008 0.000000
vn -1.000000 -0.000008 0.000000
vn -1.000000 -0.000012 0.000000
vn -1.000000 -0.000012 0.000000
s off
g pCube13
usemtl lambert11SG
f 40/61/53 39/62/54 38/63/55 37/64/56
f 39/57/57 41/58/58 42/59/59 38/60/60
f 42/53/61 43/54/62 37/55/63 38/56/64
g default
v -17.802094 0.182046 -21.707310
v -38.974388 0.182046 -21.707310
v -38.974377 -1.168179 -21.707310
v -17.802094 0.182046 0.039089
v -38.974388 0.182046 0.039089
v -38.974377 -1.168179 0.039089
vt 0.998008 0.955786
vt 0.938782 0.955786
vt 0.938782 0.001908
vt 0.998008 0.001908
vt 0.930688 0.001908
vt 0.930688 0.955786
vt 0.001992 0.955786
vt 0.001992 0.001908
vn 0.000000 1.000000 0.000000
vn 0.000000 1.000000 0.000000
vn 0.000000 1.000000 0.000000
vn 0.000000 1.000000 0.000000
vn -1.000000 -0.000008 0.000000
vn -1.000000 -0.000008 0.000000
vn -1.000000 -0.000008 0.000000
vn -1.000000 -0.000008 0.000000
s off
g pCube8
usemtl lambert14SG
f 47/69/65 44/70/66 45/71/67 48/72/68
f 45/65/69 46/66/70 49/67/71 48/68/72
g default
v -38.974388 0.182046 -43.453712
v -38.974377 -1.168179 -43.453712
v -17.802094 0.182046 -43.453712
v -17.802092 -1.168179 -43.453712
v -17.802094 0.182046 -21.707310
v -38.974388 0.182046 -21.707310
v -38.974377 -1.168179 -21.707310
vt 0.935037 0.894648
vt 0.879599 0.894648
vt 0.879599 0.001786
vt 0.935037 0.001786
vt 0.871283 0.001786
vt 0.871283 0.894648
vt 0.001992 0.894648
vt 0.001992 0.001786
vt 0.942570 0.001786
vt 0.998008 0.001786
vt 0.998008 0.871076
vt 0.942570 0.871076
vn 0.000000 0.000000 -1.000000
vn 0.000000 0.000000 -1.000000
vn 0.000000 0.000000 -1.000000
vn 0.000000 0.000000 -1.000000
vn 0.000000 1.000000 0.000000
vn 0.000000 1.000000 0.000000
vn 0.000000 1.000000 0.000000
vn 0.000000 1.000000 0.000000
vn -1.000000 -0.000008 0.000000
vn -1.000000 -0.000008 0.000000
vn -1.000000 -0.000008 0.000000
vn -1.000000 -0.000008 0.000000
s off
g pCube11
usemtl lambert17SG
f 52/81/73 53/82/74 51/83/75 50/84/76
f 54/77/77 52/78/78 50/79/79 55/80/80
f 50/73/81 51/74/82 56/75/83 55/76/84
