# This file uses centimeters as units for non-parametric coordinates.

mtllib 2room2.mtl
g default
v -31.648626 4.813149 -62.080925
v 15.847950 4.813149 -62.080925
v -31.648626 25.713285 -62.080925
v 15.847950 25.713285 -62.080925
v -31.648626 26.484371 -63.080925
v 16.639212 26.484371 -63.080925
v -31.648626 4.813149 -63.080925
v 16.639212 4.813149 -63.080925
v -27.808821 4.813149 -62.080925
v -8.973683 24.023106 -62.080925
v -8.973682 24.023106 -63.080925
v -13.617404 21.473001 -63.080925
v -26.011551 21.473001 -63.080925
v -13.617404 21.473001 -62.080925
v 10.101400 4.813149 -62.080925
v 10.101400 22.806950 -62.080925
v 9.077501 24.023106 -63.080925
v 10.101400 22.806950 -63.080925
v -27.808821 8.200039 -62.080925
v -26.011555 9.932406 -63.080925
v -26.011551 21.473001 -62.080925
v -26.011551 9.932406 -62.080925
v -27.160824 20.312981 -62.080925
v -27.160824 20.312977 -63.080925
v 9.077501 9.932406 -63.080925
v 9.077497 24.023106 -62.080925
v 9.077497 9.932406 -62.080925
v -27.160824 11.056011 -62.080925
v 10.101400 11.056008 -62.080925
v 10.101400 11.056011 -63.080925
v -27.160826 11.056009 -63.080925
v 10.101400 8.200037 -62.080925
v -27.808821 6.728794 -57.810211
v -27.808821 4.813149 -60.060711
v 10.101400 6.728792 -57.810211
v 10.101400 4.813149 -60.060711
v -27.808821 7.158324 -62.080925
v -27.808821 5.687078 -57.810211
v 10.101400 5.687077 -57.810211
v 10.101400 7.158322 -62.080925
vt 0.089950 0.543081
vt 0.089950 0.765545
vt 0.000000 0.866726
vt 0.044178 0.459730
vt 0.767748 0.852523
vt 0.691610 0.751364
vt 0.691548 0.528899
vt 0.737297 0.445536
vt 0.071340 0.117348
vt 0.089289 0.117348
vt 0.089289 0.492488
vt 0.071340 0.506328
vt 0.767510 0.000000
vt 0.715373 0.103160
vt 0.504453 0.103219
vt 0.392370 0.000104
vt 0.788429 0.117347
vt 0.770473 0.000000
vt 0.788423 0.014201
vt 1.000000 0.018379
vt 0.999982 0.648197
vt 0.988060 0.680456
vt 0.988080 0.000000
vt 0.388980 0.000000
vt 0.388980 0.866726
vt 0.297094 0.765545
vt 0.297094 0.135726
vt 0.000000 0.000000
vt 0.044178 0.135726
vt 0.985756 0.866726
vt 0.963091 0.866724
vt 0.963170 0.014200
vt 0.985837 0.000000
vt 0.737207 0.121532
vt 0.066007 0.117348
vt 0.482388 0.471100
vt 0.459396 0.457432
vt 0.456576 0.082303
vt 0.479464 0.082131
vt 0.276926 0.117348
vt 0.276926 0.786174
vt 0.670794 0.771998
vt 0.484466 0.751421
vt 0.504639 0.772044
vt 0.472554 0.783684
vt 0.453124 0.059160
vt 0.453124 0.688979
vt 0.435174 0.688979
vt 0.435174 0.059160
vt 0.267639 0.117348
vt 0.267642 0.144634
vt 0.249693 0.144635
vt 0.249690 0.117350
vt 0.267662 0.355553
vt 0.249713 0.355555
vt 0.267665 0.384088
vt 0.249715 0.384090
vt 0.431722 0.039471
vt 0.431734 0.363474
vt 0.413785 0.363475
vt 0.413772 0.039471
vt 0.431738 0.458566
vt 0.413788 0.458567
vt 0.413797 0.681032
vt 0.431746 0.681031
vt 0.634927 0.327496
vt 0.634931 0.298186
vt 0.652881 0.298189
vt 0.652876 0.327499
vt 0.652908 0.132035
vt 0.634959 0.132032
vt 0.634964 0.103183
vt 0.652913 0.103186
vt 0.770525 0.866726
vt 0.788470 0.797804
vt 0.788474 0.866725
vt 0.110771 0.786174
vt 0.392608 0.852628
vt 0.453856 0.783689
vt 0.411068 0.019781
vt 0.411068 0.700237
vt 0.392370 0.700237
vt 0.392370 0.019781
vt 0.092742 0.197314
vt 0.092742 0.178616
vt 0.169398 0.152208
vt 0.169398 0.170906
vt 0.824731 0.797801
vt 0.824690 0.117345
vt 0.881050 0.000011
vt 0.962127 0.000000
vt 0.962221 0.680456
vt 0.881144 0.680467
vt 0.171216 0.152208
vt 0.247872 0.178616
vt 0.247872 0.197314
vt 0.171216 0.170906
vt 0.392589 0.783707
vt 0.092742 0.117348
vt 0.129003 0.117348
vt 0.878088 0.797798
vt 0.878047 0.117342
vt 0.247872 0.117348
vt 0.211611 0.117348
vt 0.791875 0.000000
vt 0.853143 0.103146
vt 0.791875 0.103146
vt 0.481545 0.114142
vt 0.503451 0.114142
vt 0.633503 0.103183
vt 0.485989 0.141063
vt 0.502948 0.136704
vt 0.633460 0.136704
vt 0.622004 0.151482
vn 0.000000 0.000000 -1.000000
vn 0.000001 0.000000 -1.000000
vn 0.000000 0.000000 -1.000000
vn 0.000000 0.000000 -1.000000
vn 0.000000 0.000000 -1.000000
vn 0.000000 0.000000 -1.000000
vn 0.000000 0.000000 1.000000
vn 0.000000 0.000000 1.000000
vn 0.000000 0.000000 1.000000
vn 0.000000 0.000000 1.000000
vn 0.000000 0.000000 1.000000
vn 0.000000 0.000000 1.000000
vn -1.000000 0.000000 0.000000
vn -1.000000 0.000000 0.000000
vn -1.000000 0.000000 0.000000
vn -1.000000 0.000000 0.000000
vn 0.000000 0.000000 1.000000
vn 0.000000 0.000000 1.000000
vn 0.000000 0.000000 1.000000
vn 0.000000 0.000000 1.000000
vn 0.000000 -1.000000 0.000000
vn 0.000000 -1.000000 0.000000
vn 0.000000 -1.000000 0.000000
vn 0.000000 0.000000 1.000000
vn 0.000000 0.000000 1.000000
vn -0.000001 0.000000 1.000000
vn -0.000001 0.000000 1.000000
vn 0.000000 0.000000 -1.000000
vn 0.000000 0.000000 -1.000000
vn 0.000000 0.000000 -1.000000
vn 0.000000 0.000000 -1.000000
vn -0.000001 0.000000 -1.000000
vn 0.000000 0.000000 -1.000000
vn 0.000000 0.000000 -1.000000
vn 0.000000 0.000000 -1.000000
vn 0.000000 0.791913 0.610634
vn 0.000000 0.791913 0.610634
vn 0.000000 0.791913 0.610634
vn 0.000000 0.791913 0.610634
vn 0.000000 0.000000 1.000000
vn 0.000000 0.000000 1.000000
vn 0.000000 0.000000 1.000000
vn 0.000000 0.000000 1.000000
vn -0.000001 0.000000 -1.000000
vn -0.000001 0.000000 -1.000000
vn 0.000000 0.000000 -1.000000
vn 0.784202 0.000000 0.620506
vn 0.784202 0.000000 0.620506
vn 0.784202 0.000000 0.620506
vn 0.784202 0.000000 0.620506
vn 0.000000 0.000000 1.000000
vn 0.000000 0.000000 1.000000
vn 0.000000 0.000000 1.000000
vn 0.000000 0.000000 -1.000000
vn 0.000000 0.000000 -1.000000
vn -0.000001 0.000000 -1.000000
vn 0.000000 0.000000 -1.000000
vn 0.000000 0.000000 -1.000000
vn 0.000000 0.000000 -1.000000
vn 0.000000 0.000000 1.000000
vn 0.000000 0.000000 1.000000
vn 0.000000 0.000000 1.000000
vn 0.000000 0.000000 1.000000
vn 0.000000 0.000000 1.000000
vn -0.000001 0.000000 1.000000
vn 0.000000 1.000000 0.000001
vn 0.000000 1.000000 0.000001
vn 0.000000 1.000000 0.000001
vn 0.000000 1.000000 0.000001
vn -0.739140 0.673552 0.000000
vn -0.739140 0.673552 0.000000
vn -0.739140 0.673552 0.000000
vn -0.739140 0.673552 0.000000
vn -1.000000 0.000000 0.000000
vn -1.000000 0.000000 0.000000
vn -1.000000 0.000000 0.000000
vn -1.000000 0.000000 0.000000
vn -0.764983 -0.644051 -0.000001
vn -0.764983 -0.644051 -0.000001
vn -0.764983 -0.644051 -0.000001
vn -0.764983 -0.644051 -0.000001
vn 0.000000 -1.000000 -0.000002
vn 0.000000 -1.000000 -0.000002
vn 0.000000 -1.000000 -0.000002
vn 0.000000 -1.000000 -0.000002
vn 0.481348 -0.876530 0.000000
vn 0.481348 -0.876530 0.000000
vn 0.481348 -0.876530 0.000000
vn 0.481348 -0.876530 0.000000
vn 0.000000 -1.000000 0.000000
vn 0.000000 -1.000000 0.000000
vn 0.000000 -1.000000 0.000000
vn 0.000000 -1.000000 0.000000
vn 0.710392 -0.703806 0.000000
vn 0.710392 -0.703806 0.000000
vn 0.710392 -0.703806 0.000000
vn 0.710392 -0.703806 0.000000
vn 1.000000 0.000000 -0.000001
vn 1.000000 0.000000 -0.000001
vn 1.000000 0.000000 -0.000001
vn 1.000000 0.000000 -0.000001
vn 0.699076 0.715047 -0.000004
vn 0.699076 0.715047 -0.000004
vn 0.699076 0.715047 -0.000004
vn 0.699076 0.715047 -0.000004
vn 0.000000 -1.000000 0.000000
vn 0.000000 -1.000000 0.000000
vn 0.000000 -1.000000 0.000000
vn 0.000000 0.000000 -1.000000
vn 0.000000 0.000000 -1.000000
vn 0.000000 0.000000 -1.000000
vn 0.000000 0.000000 -1.000000
vn 0.000000 0.000000 -1.000000
vn 0.000001 0.000000 -1.000000
vn 0.000000 0.000000 -1.000000
vn 0.000000 0.000000 1.000000
vn 0.000000 0.000000 1.000000
vn 0.000000 0.000000 1.000000
vn 0.000000 0.000000 1.000000
vn 0.000000 0.000000 1.000000
vn -0.000001 0.000000 1.000000
vn 0.000000 0.000000 1.000000
vn 0.000000 0.000000 1.000000
vn -0.000007 0.000000 1.000000
vn -0.000001 0.000000 1.000000
vn 0.000000 0.000000 1.000000
vn 0.000000 0.000000 1.000000
vn 0.000000 0.000000 1.000000
vn 0.000000 0.000000 1.000000
vn -1.000000 0.000000 0.000000
vn -1.000000 0.000000 0.000000
vn -1.000000 0.000000 0.000000
vn -1.000000 0.000000 0.000000
vn 0.000000 -1.000000 0.000000
vn 0.000000 -1.000000 0.000000
vn 0.000000 -1.000000 0.000000
vn 0.000000 -1.000000 0.000000
vn 0.000000 0.945469 0.325711
vn 0.000000 0.945469 0.325711
vn 0.000000 0.945469 0.325711
vn 0.000000 0.945469 0.325711
vn 1.000000 0.000000 0.000000
vn 1.000000 0.000000 0.000000
vn 1.000000 0.000000 0.000000
vn 1.000000 0.000000 0.000000
vn 0.000000 0.000000 1.000000
vn 0.000000 0.000000 1.000000
vn -0.000007 0.000000 1.000000
vn -1.000000 0.000000 0.000000
vn -1.000000 0.000000 0.000000
vn -1.000000 0.000000 0.000000
vn -1.000000 0.000000 0.000000
vn 0.000000 -0.757064 0.653341
vn 0.000000 -0.757064 0.653341
vn 0.000000 -0.757064 0.653341
vn 0.000000 -0.757064 0.653341
vn 1.000000 0.000000 0.000000
vn 1.000000 0.000000 0.000000
vn 1.000000 0.000000 0.000000
vn 1.000000 0.000000 0.000000
vn 0.000000 0.000000 1.000000
vn 0.000000 0.000000 1.000000
vn 0.000000 0.000000 1.000000
vn -0.000001 0.000000 -1.000000
vn -0.000001 0.000000 -1.000000
vn 0.000000 0.000000 -1.000000
vn -0.000001 0.000000 -1.000000
vn 0.000000 -1.000000 0.000000
vn 0.000000 -1.000000 0.000000
vn 0.000000 -1.000000 0.000000
vn 0.000000 -1.000000 0.000000
vn 0.000000 0.000000 1.000000
vn -0.000001 0.000000 1.000000
vn 0.000000 0.000000 1.000000
vn 0.000000 0.000000 1.000000
vn 0.000000 0.000000 1.000000
vn -0.000001 0.000000 1.000000
vn 0.000000 0.000000 1.000000
s off
g polySurface3polySurface1
usemtl initialShadingGroup
f 12/1/1 13/2/2 5/3/3
f 11/4/4 12/1/5 5/3/6
f 3/5/7 21/6/8 14/7/9
f 14/7/10 10/8/11 3/5/12
f 7/9/13 1/10/14 3/11/15 5/12/16
f 4/13/17 16/14/18 29/15/19 2/16/20
f 15/17/21 8/18/22 2/19/23
f 27/20/24 22/21/25 19/22/26 32/23/27
f 8/24/28 7/25/29 20/26/30 25/27/31
f 6/28/32 17/29/33 11/4/34 5/3/35
f 5/30/36 3/31/37 4/32/38 6/33/39
f 3/5/40 10/8/41 26/34/42 4/13/43
f 6/28/44 18/35/45 17/29/46
f 6/36/47 4/37/48 2/38/49 8/39/50
f 26/34/51 16/14/52 4/13/53
f 8/24/54 25/27/55 30/40/56
f 31/41/57 20/26/58 7/25/59
f 23/42/60 21/6/61 3/5/62
f 22/43/63 28/44/64 19/45/65
f 25/46/66 20/47/67 22/48/68 27/49/69
f 27/50/70 29/51/71 30/52/72 25/53/73
f 29/51/74 16/54/75 18/55/76 30/52/77
f 16/54/78 26/56/79 17/57/80 18/55/81
f 26/58/82 10/59/83 11/60/84 17/61/85
f 10/59/86 14/62/87 12/63/88 11/60/89
f 13/64/90 12/63/91 14/62/92 21/65/93
f 21/66/94 23/67/95 24/68/96 13/69/97
f 31/70/98 24/68/99 23/67/100 28/71/101
f 28/71/102 22/72/103 20/73/104 31/70/105
f 7/74/106 9/75/107 1/76/108
f 5/3/109 24/77/110 31/41/111 7/25/112
f 5/3/113 13/2/114 24/77/115
f 1/78/116 28/44/117 23/42/118 3/5/119
f 1/78/120 19/45/121 28/44/122
f 1/78/123 37/79/124 19/45/125
f 35/80/126 33/81/127 38/82/128 39/83/129
f 19/84/130 37/85/131 38/86/132 33/87/133
f 34/88/134 9/75/135 15/17/136 36/89/137
f 35/90/138 32/91/139 19/92/140 33/93/141
f 39/94/142 40/95/143 32/96/144 35/97/145
f 1/78/146 9/98/147 37/79/148
f 38/86/149 37/85/150 9/99/151 34/100/152
f 38/101/153 34/88/154 36/89/155 39/102/156
f 15/103/157 40/95/158 39/94/159 36/104/160
f 2/105/161 40/106/162 15/107/163
f 18/35/164 6/28/165 8/24/166 30/40/167
f 7/74/168 8/18/169 15/17/170 9/75/171
f 27/108/172 32/109/173 2/110/174 29/111/175
f 2/112/176 32/113/177 40/114/178
g default
v -8.973684 24.023106 -62.953712
v -13.617406 21.473001 -62.953712
v -26.011553 21.473001 -62.953712
v -26.011553 9.932406 -62.953712
v -27.160826 20.312981 -62.953712
v 9.077495 24.023106 -62.953712
v 9.077495 9.932406 -62.953712
v 10.101395 22.806950 -62.953712
v -27.160826 11.056011 -62.953712
v 10.101395 11.056007 -62.953712
v -13.617399 9.932406 -62.953712
v -8.973684 9.932406 -62.953712
v 9.077495 24.023106 -62.442684
v 9.077495 9.932406 -62.442684
v 10.101395 11.056007 -62.442684
v 10.101395 22.806950 -62.442684
v -26.011551 21.473001 -62.442684
v -26.011551 9.932406 -62.442684
v -27.160822 20.312981 -62.442684
v -27.160822 11.056011 -62.442684
v -8.973684 24.023106 -62.442684
v -8.973684 9.932406 -62.442684
v -13.617406 21.473001 -62.442684
v -13.617399 9.932406 -62.442684
vt 0.378150 0.027478
vt 0.000000 0.027478
vt 0.030154 0.000000
vt 0.345512 0.000000
vt 0.000000 0.969157
vt 0.309713 0.969157
vt 0.278582 1.000000
vt 0.030154 1.000000
vt 0.378150 0.511915
vt 0.000000 0.511915
vt 0.000000 0.636537
vt 0.309713 0.636537
vt 0.380749 0.027478
vt 0.413387 0.000000
vt 0.728745 0.000000
vt 0.758899 0.027478
vt 0.758899 0.969157
vt 0.728745 1.000000
vt 0.480317 1.000000
vt 0.449186 0.969157
vt 0.758899 0.511915
vt 0.380749 0.511915
vt 0.758899 0.636537
vt 0.449186 0.636537
vt 0.805445 0.000000
vt 0.805445 0.030967
vt 0.791361 0.030967
vt 0.791361 0.000000
vt 0.805445 0.354830
vt 0.791361 0.354830
vt 0.805445 0.388349
vt 0.791361 0.388349
vt 0.806292 0.322295
vt 0.806292 0.289899
vt 0.820564 0.289899
vt 0.820564 0.322295
vt 0.806292 0.031379
vt 0.820564 0.031379
vt 0.806292 0.000000
vt 0.820564 0.000000
vt 0.775340 0.000000
vt 0.775340 0.488931
vt 0.761498 0.488931
vt 0.761498 0.000000
vt 0.776430 0.484437
vt 0.776430 0.000000
vt 0.790144 0.000000
vt 0.790144 0.484437
vt 0.775340 0.614710
vt 0.775340 0.950416
vt 0.761498 0.950416
vt 0.761498 0.614710
vt 0.776430 0.941679
vt 0.776430 0.609059
vt 0.790144 0.609059
vt 0.790144 0.941679
vn -0.000001 0.000000 1.000000
vn -0.000001 0.000000 1.000000
vn -0.000001 0.000000 1.000000
vn -0.000001 0.000000 1.000000
vn 0.000000 0.000000 1.000000
vn 0.000000 0.000000 1.000000
vn -0.000001 0.000000 1.000000
vn -0.000001 0.000000 1.000000
vn 0.000000 0.000000 1.000000
vn 0.000000 0.000000 1.000000
vn 0.000000 0.000000 1.000000
vn 0.000000 0.000000 1.000000
vn 0.000000 0.000000 1.000000
vn 0.000000 0.000000 1.000000
vn 0.000000 0.000000 1.000000
vn 0.000000 0.000000 1.000000
vn 0.000000 0.000000 1.000000
vn 0.000000 0.000000 1.000000
vn 0.000000 0.000000 1.000000
vn 0.000000 0.000000 1.000000
vn 0.000000 0.000000 -1.000000
vn 0.000000 0.000000 -1.000000
vn 0.000000 0.000000 -1.000000
vn 0.000000 0.000000 -1.000000
vn 0.000000 0.000000 -1.000000
vn 0.000000 0.000000 -1.000000
vn 0.000000 0.000000 -1.000000
vn 0.000000 0.000000 -1.000000
vn 0.000000 0.000000 -1.000000
vn 0.000000 0.000000 -1.000000
vn 0.000000 0.000000 -1.000000
vn 0.000000 0.000000 -1.000000
vn 0.000000 0.000000 -1.000000
vn 0.000000 0.000000 -1.000000
vn 0.000000 0.000000 -1.000000
vn 0.000000 0.000000 -1.000000
vn 0.000000 0.000000 -1.000000
vn 0.000000 0.000000 -1.000000
vn 0.000000 0.000000 -1.000000
vn 0.000000 0.000000 -1.000000
vn 0.739137 -0.673555 0.000000
vn 0.739137 -0.673555 0.000000
vn 0.739137 -0.673555 0.000000
vn 0.739137 -0.673555 0.000000
vn 1.000000 0.000000 0.000000
vn 1.000000 0.000000 0.000000
vn 1.000000 0.000000 0.000000
vn 1.000000 0.000000 0.000000
vn 0.764983 0.644050 0.000000
vn 0.764983 0.644050 0.000000
vn 0.764983 0.644050 0.000000
vn 0.764983 0.644050 0.000000
vn -0.710391 0.703808 0.000003
vn -0.710391 0.703808 0.000003
vn -0.710391 0.703808 0.000003
vn -0.710391 0.703808 0.000003
vn -1.000000 0.000000 0.000007
vn -1.000000 0.000000 0.000007
vn -1.000000 0.000000 0.000007
vn -1.000000 0.000000 0.000007
vn -0.699078 -0.715045 0.000004
vn -0.699078 -0.715045 0.000004
vn -0.699078 -0.715045 0.000004
vn -0.699078 -0.715045 0.000004
vn 0.000000 1.000000 0.000000
vn -0.111662 0.993746 0.000000
vn -0.111662 0.993746 0.000000
vn 0.000000 1.000000 0.000000
vn 0.000000 -1.000000 0.000000
vn 0.000000 -1.000000 0.000000
vn 0.000000 -1.000000 0.000000
vn 0.000000 -1.000000 0.000000
vn -0.148024 0.988984 0.000000
vn 0.000000 1.000000 0.000000
vn 0.000000 1.000000 0.000000
vn -0.148024 0.988984 0.000000
vn 0.000000 -1.000000 0.000001
vn 0.000000 -1.000000 0.000000
vn 0.000000 -1.000000 0.000000
vn 0.000000 -1.000000 0.000001
vn -0.111662 0.993746 0.000000
vn -0.148024 0.988984 0.000000
vn -0.148024 0.988984 0.000000
vn -0.111662 0.993746 0.000000
vn 0.000000 -1.000000 0.000000
vn 0.000000 -1.000000 0.000000
vn 0.000000 -1.000000 0.000000
vn 0.000000 -1.000000 0.000000
s off
g polySurface1polySurface4
usemtl initialShadingGroup
f 53/115/179 54/116/180 55/117/181 56/118/182
f 58/119/183 57/120/184 59/121/185 60/122/186
f 53/115/187 61/123/188 62/124/189 54/116/190
f 64/125/191 63/126/192 57/120/193 58/119/194
f 62/124/195 61/123/196 63/126/197 64/125/198
f 46/127/199 48/128/200 50/129/201 47/130/202
f 44/131/203 49/132/204 45/133/205 43/134/206
f 46/127/207 47/130/208 52/135/209 41/136/210
f 51/137/211 44/131/212 43/134/213 42/138/214
f 52/135/215 51/137/216 42/138/217 41/136/218
f 47/139/219 50/140/220 55/141/221 54/142/222
f 50/140/223 48/143/224 56/144/225 55/141/226
f 48/143/227 46/145/228 53/146/229 56/144/230
f 43/147/231 45/148/232 59/149/233 57/150/234
f 45/148/235 49/151/236 60/152/237 59/149/238
f 49/151/239 44/153/240 58/154/241 60/152/242
f 46/155/243 41/156/244 61/157/245 53/158/246
f 52/159/247 47/160/248 54/161/249 62/162/250
f 42/163/251 43/164/252 57/165/253 63/166/254
f 44/167/255 51/168/256 64/169/257 58/170/258
f 41/156/259 42/163/260 63/166/261 61/157/262
f 51/168/263 52/159/264 62/162/265 64/169/266
g default
v -31.648678 4.813174 -76.940765
v 16.639114 4.813174 -76.940765
v -31.648678 31.927084 -76.940765
v 16.639114 31.927084 -76.940765
v -31.648678 31.927084 -82.610420
v 16.639114 31.927084 -82.610420
v -31.648678 4.813174 -82.610420
v 16.639114 4.813174 -82.610420
v 16.639114 26.484400 -76.940765
v -31.648678 26.484400 -76.940765
v -31.648678 26.484402 -82.610420
v 16.639114 26.484402 -82.610420
v -31.648678 4.813174 -63.058666
v 16.639114 4.813174 -63.058666
v 16.639114 26.484400 -63.058666
v -31.648678 26.484400 -63.058666
v -30.948677 5.359834 -63.058666
v -30.948677 25.937738 -63.058666
v 15.939115 5.359834 -63.058666
v 15.939115 25.937738 -63.058666
v -30.948677 5.359834 -82.314438
v -30.948677 25.937738 -82.314438
v 15.939115 5.359834 -82.314438
v 15.939115 25.937738 -82.314438
vt 0.906825 0.500000
vt 0.906825 0.000000
vt 0.965532 0.000000
vt 0.965532 0.500000
vt 0.497944 0.500000
vt 0.497944 0.000000
vt 0.556651 0.000000
vt 0.556651 0.500000
vt 0.143743 0.724397
vt 0.143743 0.500000
vt 0.202450 0.500000
vt 0.202450 0.724397
vt 0.485799 0.500000
vt 0.544506 0.500000
vt 0.544506 0.724397
vt 0.485799 0.724397
vt 0.910873 0.500000
vt 0.969580 0.500000
vt 0.969580 0.556357
vt 0.910873 0.556357
vt 0.000000 0.500000
vt 0.000000 0.000000
vt 0.056357 0.000000
vt 0.056357 0.500000
vt 0.850148 0.500000
vt 0.908855 0.500000
vt 0.908855 0.556356
vt 0.850148 0.556356
vt 0.280753 0.000000
vt 0.280753 0.500000
vt 0.700394 0.000000
vt 0.700394 0.500000
vt 0.000000 0.724397
vt 0.000000 0.500000
vt 0.848152 0.485504
vt 0.848152 0.985504
vt 0.704409 0.985504
vt 0.704409 0.485504
vt 0.688249 0.500000
vt 0.688249 0.724397
vt 0.496458 0.485504
vt 0.283383 0.485504
vt 0.283383 0.000000
vt 0.496458 0.000000
vt 0.262821 0.500000
vt 0.262821 1.000000
vt 0.206465 1.000000
vt 0.206465 0.500000
vt 0.487537 0.978256
vt 0.263141 0.978256
vt 0.268802 0.971008
vt 0.481876 0.971008
vt 0.975646 0.500001
vt 0.975646 0.000000
vt 0.981307 0.007248
vt 0.981307 0.492752
vt 0.263141 0.978256
vt 0.487538 0.978256
vt 0.481877 0.985504
vt 0.268802 0.985504
vt 0.973210 0.000000
vt 0.973210 0.499996
vt 0.967550 0.492748
vt 0.967550 0.007248
vt 0.485799 0.937472
vt 0.485799 0.724397
vt 0.685185 0.724397
vt 0.685185 0.937472
vt 0.283383 0.971008
vt 0.283383 0.485504
vt 0.482768 0.485504
vt 0.482768 0.971008
vt 0.199386 0.724397
vt 0.199386 0.937472
vt 0.000000 0.937472
vt 0.000000 0.724397
vt 0.903794 0.000000
vt 0.903794 0.485504
vt 0.704409 0.485504
vt 0.704409 0.000000
vn 0.000000 1.000000 0.000000
vn 0.000000 1.000000 0.000000
vn 0.000000 1.000000 0.000000
vn 0.000000 1.000000 0.000000
vn 0.000000 -1.000000 0.000000
vn 0.000000 -1.000000 0.000000
vn 0.000000 -1.000000 0.000000
vn 0.000000 -1.000000 0.000000
vn 1.000000 0.000000 0.000000
vn 1.000000 0.000000 0.000000
vn 1.000000 0.000000 0.000000
vn 1.000000 0.000000 0.000000
vn -1.000000 0.000000 0.000000
vn -1.000000 0.000000 0.000000
vn -1.000000 0.000000 0.000000
vn -1.000000 0.000000 0.000000
vn -1.000000 0.000000 0.000000
vn -1.000000 0.000000 0.000000
vn -1.000000 0.000000 0.000000
vn -1.000000 0.000000 0.000000
vn 0.000000 0.000000 -1.000000
vn 0.000000 0.000000 -1.000000
vn 0.000000 0.000000 -1.000000
vn 0.000000 0.000000 -1.000000
vn 1.000000 0.000000 0.000000
vn 1.000000 0.000000 0.000000
vn 1.000000 0.000000 0.000000
vn 1.000000 0.000000 0.000000
vn 0.000000 0.000000 -1.000000
vn 0.000000 0.000000 -1.000000
vn 0.000000 0.000000 -1.000000
vn 0.000000 0.000000 -1.000000
vn 0.000000 -1.000000 0.000000
vn 0.000000 -1.000000 0.000000
vn 0.000000 -1.000000 0.000000
vn 0.000000 -1.000000 0.000000
vn 1.000000 0.000000 0.000000
vn 1.000000 0.000000 0.000000
vn 1.000000 0.000000 0.000000
vn 1.000000 0.000000 0.000000
vn 0.000000 1.000000 0.000000
vn 0.000000 1.000000 0.000000
vn 0.000000 1.000000 0.000000
vn 0.000000 1.000000 0.000000
vn -1.000000 0.000000 0.000000
vn -1.000000 0.000000 0.000000
vn -1.000000 0.000000 0.000000
vn -1.000000 0.000000 0.000000
vn 0.000000 0.000000 1.000000
vn 0.000000 0.000000 1.000000
vn 0.000000 0.000000 1.000000
vn 0.000000 0.000000 1.000000
vn 0.000000 0.000000 1.000000
vn 0.000000 0.000000 1.000000
vn 0.000000 0.000000 1.000000
vn 0.000000 0.000000 1.000000
vn -0.000002 0.000000 1.000000
vn -0.000002 0.000000 1.000000
vn 0.000000 0.000000 1.000000
vn 0.000000 0.000000 1.000000
vn -0.000002 0.000000 1.000000
vn 0.000004 0.000000 1.000000
vn 0.000000 0.000000 1.000000
vn 0.000000 0.000000 1.000000
vn 0.000004 0.000000 1.000000
vn 0.000004 0.000000 1.000000
vn 0.000000 0.000000 1.000000
vn 0.000000 0.000000 1.000000
vn 0.000004 0.000000 1.000000
vn -0.000002 0.000000 1.000000
vn 0.000000 0.000000 1.000000
vn 0.000000 0.000000 1.000000
vn 0.000000 0.000000 1.000000
vn 0.000000 0.000000 1.000000
vn 0.000000 0.000000 1.000000
vn 0.000000 0.000000 1.000000
vn 0.000000 0.000000 1.000000
vn 0.000000 0.000000 1.000000
vn 0.000000 0.000000 1.000000
vn 0.000000 0.000000 1.000000
vn 0.000000 0.000000 1.000000
vn 0.000000 0.000000 1.000000
vn 0.000000 0.000000 1.000000
vn 0.000000 0.000000 1.000000
vn 0.000000 0.000000 1.000000
vn 0.000000 0.000000 1.000000
vn 0.000000 0.000000 1.000000
vn 0.000000 0.000000 1.000000
s off
g polySurface2pCube76
usemtl initialShadingGroup
f 67/171/267 68/172/268 70/173/269 69/174/270
f 71/175/271 72/176/272 66/177/273 65/178/274
f 73/179/275 66/180/276 72/181/277 76/182/278
f 71/183/279 65/184/280 74/185/281 75/186/282
f 75/187/283 74/188/284 67/189/285 69/190/286
f 69/191/287 70/192/288 76/193/289 75/194/290
f 73/195/291 76/196/292 70/197/293 68/198/294
f 72/199/295 71/200/296 75/194/297 76/193/298
f 65/178/299 66/177/300 78/201/301 77/202/302
f 66/180/303 73/179/304 79/203/305 78/204/306
f 73/205/307 74/206/308 80/207/309 79/208/310
f 74/185/311 65/184/312 77/209/313 80/210/314
f 86/211/315 85/212/316 87/213/317 88/214/318
f 68/215/319 67/216/320 74/217/321 73/218/322
f 80/219/323 77/220/324 81/221/325 82/222/326
f 77/223/327 78/224/328 83/225/329 81/226/330
f 78/227/331 79/228/332 84/229/333 83/230/334
f 79/231/335 80/232/336 82/233/337 84/234/338
f 82/235/339 81/236/340 85/237/341 86/238/342
f 81/239/343 83/240/344 87/241/345 85/242/346
f 83/243/347 84/244/348 88/245/349 87/246/350
f 84/247/351 82/248/352 86/249/353 88/250/354
