# This file uses centimeters as units for non-parametric coordinates.

mtllib WClow.mtl
g default
v -0.195666 -0.348065 0.283025
v -0.111321 -0.348065 0.283025
v -0.195666 2.071129 0.283025
v -0.111321 2.071129 0.283025
v -0.195666 2.071129 -0.283025
v -0.111321 2.071129 -0.283025
v -0.195666 -0.348065 -0.283025
v -0.111321 -0.348065 -0.283025
v -0.195666 1.960300 -0.159720
v -0.195666 1.960300 0.159721
v -0.195666 1.840633 0.159721
v -0.195666 1.840633 -0.159720
v -3.970875 1.840633 0.159721
v -3.970875 1.840633 -0.159720
v -3.970875 1.960300 0.159721
v -3.970875 1.960300 -0.159720
v -2.146063 1.960300 0.159721
v -2.146063 1.840633 0.159721
v -2.146063 1.840633 -0.159720
v -2.146063 1.960300 -0.159720
v -2.858753 1.840633 -0.082155
v -2.655128 1.840633 -0.082155
v -1.636999 1.840633 -0.082155
v -1.433373 1.840633 -0.082155
v -2.858753 1.840633 0.082155
v -2.655128 1.840633 0.082155
v -1.636999 1.840633 0.082155
v -1.433373 1.840633 0.082155
v -2.858753 1.245082 -0.082155
v -2.655128 1.245082 -0.082155
v -2.655128 1.245082 0.082155
v -2.858753 1.245082 0.082155
v -1.636999 1.245082 -0.082155
v -1.433373 1.245082 -0.082155
v -1.433373 1.245082 0.082155
v -1.636999 1.245082 0.082155
vt 0.004086 0.905746
vt 0.476583 0.905746
vt 0.476583 0.922220
vt 0.004086 0.922220
vt 0.243640 0.526837
vt 0.243640 0.543311
vt 0.133083 0.543311
vt 0.133083 0.526837
vt 0.004086 0.896741
vt 0.004086 0.880267
vt 0.476588 0.880267
vt 0.476588 0.896741
vt 0.133084 0.570621
vt 0.133084 0.554147
vt 0.243640 0.554147
vt 0.243640 0.570621
vt 0.980744 0.915389
vt 0.508245 0.915389
vt 0.508245 0.804832
vt 0.980744 0.804833
vt 0.959098 0.759063
vt 0.980743 0.783177
vt 0.508245 0.783177
vt 0.935725 0.759063
vt 0.462899 0.725894
vt 0.462898 0.788285
vt 0.439526 0.788285
vt 0.439526 0.725894
vt 0.499692 0.978760
vt 0.741432 0.993907
vt 0.360500 0.993907
vt 0.459921 0.978760
vt 0.385023 0.847545
vt 0.385023 0.870918
vt 0.004086 0.870918
vt 0.004086 0.847545
vt 0.385023 0.807588
vt 0.004086 0.807588
vt 0.004086 0.745197
vt 0.385023 0.745197
vt 0.004086 0.839290
vt 0.004086 0.815918
vt 0.385024 0.815918
vt 0.385024 0.839290
vt 0.261068 0.978760
vt 0.221298 0.978760
vt 0.004086 0.993907
vt 0.004086 0.931517
vt 0.221298 0.946668
vt 0.004086 0.608418
vt 0.360496 0.608418
vt 0.360496 0.631790
vt 0.004086 0.631790
vt 0.004086 0.640477
vt 0.360495 0.640477
vt 0.360495 0.663850
vt 0.004086 0.663850
vt 0.360495 0.735952
vt 0.004086 0.735952
vt 0.004086 0.673561
vt 0.360495 0.673561
vt 0.360489 0.931517
vt 0.261068 0.946668
vt 0.459921 0.946668
vt 0.773407 0.631467
vt 0.733636 0.631467
vt 0.733636 0.599375
vt 0.773407 0.599375
vt 0.773410 0.581222
vt 0.733639 0.581229
vt 0.733633 0.549137
vt 0.773404 0.549130
vt 0.644841 0.538589
vt 0.684612 0.538589
vt 0.684612 0.654908
vt 0.644841 0.654908
vt 0.540888 0.538589
vt 0.572979 0.538589
vt 0.572979 0.654908
vt 0.540888 0.654908
vt 0.612750 0.538589
vt 0.612750 0.654908
vt 0.492239 0.538595
vt 0.532009 0.538602
vt 0.531990 0.654920
vt 0.492219 0.654914
vt 0.388285 0.538578
vt 0.420376 0.538583
vt 0.420357 0.654902
vt 0.388265 0.654896
vt 0.460147 0.538589
vt 0.460127 0.654908
vt 0.508245 0.672620
vt 0.935725 0.696673
vt 0.980743 0.672620
vt 0.959098 0.696673
vt 0.741432 0.931517
vt 0.499692 0.946668
vn 0.000000 0.000000 1.000000
vn 0.000000 0.000000 1.000000
vn 0.000000 0.000000 1.000000
vn 0.000000 0.000000 1.000000
vn 0.000000 1.000000 0.000000
vn 0.000000 1.000000 0.000000
vn 0.000000 1.000000 0.000000
vn 0.000000 1.000000 0.000000
vn 0.000000 0.000000 -1.000000
vn 0.000000 0.000000 -1.000000
vn 0.000000 0.000000 -1.000000
vn 0.000000 0.000000 -1.000000
vn 0.000000 -1.000000 0.000000
vn 0.000000 -1.000000 0.000000
vn 0.000000 -1.000000 0.000000
vn 0.000000 -1.000000 0.000000
vn 1.000000 0.000000 0.000000
vn 1.000000 0.000000 0.000000
vn 1.000000 0.000000 0.000000
vn 1.000000 0.000000 0.000000
vn -1.000000 0.000000 0.000000
vn -1.000000 0.000000 0.000000
vn -1.000000 0.000000 0.000000
vn -1.000000 0.000000 0.000000
vn -1.000000 0.000000 0.000000
vn -1.000000 0.000000 0.000000
vn -1.000000 0.000000 0.000000
vn -1.000000 0.000000 0.000000
vn 0.000000 -1.000000 -0.000001
vn 0.000000 -1.000000 -0.000000
vn 0.000000 -1.000000 -0.000002
vn 0.000000 -1.000000 -0.000002
vn 0.000000 0.000000 1.000000
vn 0.000000 0.000000 1.000000
vn 0.000000 0.000000 1.000000
vn 0.000000 0.000000 1.000000
vn 0.000000 1.000000 0.000000
vn 0.000000 1.000000 0.000000
vn 0.000000 1.000000 0.000000
vn 0.000000 1.000000 0.000000
vn 0.000000 0.000000 -1.000000
vn 0.000000 0.000000 -1.000000
vn 0.000000 0.000000 -1.000000
vn 0.000000 0.000000 -1.000000
vn 0.000000 -1.000000 -0.000000
vn 0.000000 -1.000000 -0.000000
vn 0.000000 -1.000000 -0.000002
vn 0.000000 -1.000000 0.000000
vn 0.000000 -1.000000 0.000000
vn 0.000000 -1.000000 0.000000
vn 0.000000 -1.000000 0.000000
vn 0.000000 0.000000 1.000000
vn 0.000000 0.000000 1.000000
vn 0.000000 0.000000 -1.000000
vn 0.000000 0.000000 -1.000000
vn 0.000000 1.000000 0.000000
vn 0.000000 1.000000 0.000000
vn 0.000000 -1.000000 0.000000
vn 0.000000 -1.000000 0.000000
vn 0.000000 -1.000000 0.000000
vn 0.000000 -1.000000 0.000000
vn 0.000000 -1.000000 0.000002
vn 0.000000 -1.000000 0.000000
vn 0.000000 -1.000000 0.000000
vn 0.000000 -1.000000 0.000000
vn 0.000000 -1.000000 0.000000
vn 0.000000 -1.000000 0.000000
vn 0.000000 -1.000000 0.000000
vn 0.000000 -1.000000 0.000000
vn 0.000000 -1.000000 0.000000
vn 0.000000 -1.000000 0.000000
vn 0.000000 -1.000000 0.000000
vn 0.000000 0.000000 -1.000000
vn 0.000000 0.000000 -1.000000
vn 0.000000 0.000000 -1.000000
vn 0.000000 0.000000 -1.000000
vn 1.000000 0.000000 0.000000
vn 1.000000 0.000000 0.000000
vn 1.000000 0.000000 0.000000
vn 1.000000 0.000000 0.000000
vn 0.000000 0.000000 1.000000
vn 0.000000 0.000000 1.000000
vn 0.000000 0.000000 1.000000
vn 0.000000 0.000000 1.000000
vn -1.000000 0.000000 0.000000
vn -1.000000 0.000000 0.000000
vn -1.000000 0.000000 0.000000
vn -1.000000 0.000000 0.000000
vn 0.000000 0.000000 -1.000000
vn 0.000000 0.000000 -1.000000
vn 0.000000 0.000000 -1.000000
vn 0.000000 0.000000 -1.000000
vn 1.000000 0.000000 0.000000
vn 1.000000 0.000000 0.000000
vn 1.000000 0.000000 0.000000
vn 1.000000 0.000000 0.000000
vn 0.000000 0.000000 1.000000
vn 0.000000 0.000000 1.000000
vn 0.000000 0.000000 1.000000
vn 0.000000 0.000000 1.000000
vn -1.000000 0.000000 0.000000
vn -1.000000 0.000000 0.000000
vn -1.000000 0.000000 0.000000
vn -1.000000 0.000000 0.000000
vn -1.000000 0.000000 0.000000
vn -1.000000 0.000000 0.000000
vn -1.000000 0.000000 0.000000
vn -1.000000 0.000000 0.000000
vn 0.000000 -1.000000 0.000000
vn 0.000000 -1.000000 0.000000
vn 0.000000 -1.000000 0.000001
vn 0.000000 -1.000000 0.000001
s off
g polySurface2 pCube10
usemtl lambert2SG
f 3/1/1 1/2/2 2/3/3 4/4/4
f 3/5/5 4/6/6 6/7/7 5/8/8
f 8/9/9 7/10/10 5/11/11 6/12/12
f 2/13/13 1/14/14 7/15/15 8/16/16
f 4/17/17 2/18/18 8/19/19 6/20/20
s 1
f 9/21/21 5/22/22 7/23/23 12/24/24
s off
f 14/25/25 13/26/26 15/27/27 16/28/28
s 2
f 28/29/29 11/30/30 18/31/31 27/32/32
s 3
f 11/33/33 10/34/34 17/35/35 18/36/36
s 4
f 17/37/37 10/38/38 9/39/39 20/40/40
s 5
f 9/41/41 12/42/42 19/43/43 20/44/44
s 6
f 26/45/45 27/32/46 18/31/47
s 7
f 25/46/48 13/47/49 14/48/50 21/49/51
s 3
f 13/50/52 18/51/36 17/52/35 15/53/53
s 5
f 16/54/54 20/55/44 19/56/43 14/57/55
s 4
f 15/58/56 17/59/37 20/60/40 16/61/57
s 7
f 25/46/48 26/45/58 18/31/59 13/47/49
f 14/48/50 19/62/60 22/63/61 21/49/51
s 6
f 19/62/62 23/64/63 22/63/64
s off
f 29/65/65 30/66/66 31/67/67 32/68/68
s 6
f 22/63/64 23/64/63 27/32/46 26/45/45
s off
f 33/69/69 34/70/70 35/71/71 36/72/72
f 21/73/73 22/74/74 30/75/75 29/76/76
f 22/77/77 26/78/78 31/79/79 30/80/80
f 26/78/81 25/81/82 32/82/83 31/79/84
f 25/81/85 21/73/86 29/76/87 32/82/88
f 23/83/89 24/84/90 34/85/91 33/86/92
f 24/87/93 28/88/94 35/89/95 34/90/96
f 28/88/97 27/91/98 36/92/99 35/89/100
f 27/91/101 23/83/102 33/86/103 36/92/104
s 1
f 1/93/105 11/94/106 12/24/24 7/23/23
f 11/94/106 1/93/105 3/95/107 10/96/108
f 10/96/108 3/95/107 5/22/22 9/21/21
s 2
f 12/97/109 11/30/30 28/29/29 24/98/110
f 19/62/111 12/97/109 24/98/110 23/64/112
g default
v -3.739089 0.033316 0.212460
v -0.602333 0.033316 0.212460
v -3.739089 1.242292 0.212460
v -0.602333 1.242292 0.212460
v -3.739089 1.242292 -0.212460
v -0.602333 1.242292 -0.212460
v -3.739089 0.033316 -0.212460
v -0.602333 0.033316 -0.212460
v -3.739089 0.212323 -0.283548
v -3.739089 0.212323 0.283548
v -0.602333 0.212323 0.283548
v -0.602333 0.212323 -0.283548
v -3.739089 1.063285 -0.283548
v -3.739089 1.063285 0.283548
v -0.602333 1.063285 0.283548
v -0.602333 1.063285 -0.283548
vt 0.004169 0.208134
vt 0.616817 0.208134
vt 0.616817 0.245753
vt 0.004169 0.245753
vt 0.912073 0.617527
vt 0.912073 0.004880
vt 0.995065 0.004880
vt 0.995065 0.617527
vt 0.004169 0.254331
vt 0.616817 0.254331
vt 0.616817 0.291950
vt 0.004169 0.291950
vt 0.819677 0.617527
vt 0.819677 0.004879
vt 0.902669 0.004879
vt 0.902669 0.617527
vt 0.783190 0.323534
vt 0.672428 0.323534
vt 0.685916 0.288572
vt 0.768908 0.288572
vt 0.783189 0.050045
vt 0.672428 0.050045
vt 0.685916 0.015083
vt 0.768908 0.015083
vt 0.769702 0.251212
vt 0.686710 0.251211
vt 0.672429 0.216249
vt 0.783189 0.216249
vt 0.004169 0.004312
vt 0.616817 0.004312
vt 0.616817 0.041931
vt 0.004169 0.041931
vt 0.769702 0.524700
vt 0.686710 0.524700
vt 0.672428 0.489738
vt 0.783190 0.489738
vt 0.004169 0.458153
vt 0.616817 0.458153
vt 0.616817 0.495771
vt 0.004169 0.495771
vn 0.000000 0.369085 0.929395
vn 0.000000 0.369085 0.929395
vn 0.000000 0.369085 0.929395
vn 0.000000 0.369085 0.929395
vn 0.000000 1.000000 0.000000
vn 0.000000 1.000000 0.000000
vn 0.000000 1.000000 0.000000
vn 0.000000 1.000000 0.000000
vn 0.000000 0.369085 -0.929395
vn 0.000000 0.369085 -0.929395
vn 0.000000 0.369085 -0.929395
vn 0.000000 0.369085 -0.929395
vn 0.000000 -1.000000 0.000000
vn 0.000000 -1.000000 0.000000
vn 0.000000 -1.000000 0.000000
vn 0.000000 -1.000000 0.000000
vn 1.000000 0.000000 0.000000
vn 1.000000 0.000000 0.000000
vn 1.000000 0.000000 0.000000
vn 1.000000 0.000000 0.000000
vn -1.000000 -0.000001 0.000000
vn -1.000000 -0.000001 0.000000
vn -1.000000 -0.000001 0.000000
vn -1.000000 -0.000001 0.000000
vn -1.000000 0.000001 0.000000
vn -1.000000 0.000001 0.000000
vn -1.000000 0.000001 0.000000
vn -1.000000 0.000001 0.000000
vn 0.000000 -0.369085 0.929396
vn 0.000000 -0.369085 0.929396
vn 0.000000 -0.369085 0.929396
vn 0.000000 -0.369085 0.929396
vn 1.000000 -0.000000 0.000000
vn 1.000000 -0.000000 0.000000
vn 1.000000 -0.000000 0.000000
vn 1.000000 -0.000000 0.000000
vn 0.000000 -0.369085 -0.929396
vn 0.000000 -0.369085 -0.929396
vn 0.000000 -0.369085 -0.929396
vn 0.000000 -0.369085 -0.929396
vn -1.000000 0.000000 0.000000
vn -1.000000 0.000000 0.000000
vn -1.000000 0.000000 0.000000
vn -1.000000 0.000000 0.000000
vn 0.000000 0.000000 1.000000
vn 0.000000 0.000000 1.000000
vn 0.000000 0.000000 1.000000
vn 0.000000 0.000000 1.000000
vn 1.000000 0.000000 0.000000
vn 1.000000 0.000000 0.000000
vn 1.000000 0.000000 0.000000
vn 1.000000 0.000000 0.000000
vn 0.000000 0.000000 -1.000000
vn 0.000000 0.000000 -1.000000
vn 0.000000 0.000000 -1.000000
vn 0.000000 0.000000 -1.000000
s off
g pCube10 polySurface1
usemtl blinn1SG
f 50/99/113 51/100/114 40/101/115 39/102/116
f 39/103/117 40/104/118 42/105/119 41/106/120
f 41/107/121 42/108/122 52/109/123 49/110/124
f 43/111/125 44/112/126 38/113/127 37/114/128
f 51/115/129 52/116/130 42/117/131 40/118/132
f 49/119/133 50/120/134 39/121/135 41/122/136
f 43/123/137 37/124/138 46/125/139 45/126/140
f 37/127/141 38/128/142 47/129/143 46/130/144
f 38/131/145 44/132/146 48/133/147 47/134/148
f 45/135/149 48/136/150 44/137/151 43/138/152
f 45/126/153 46/125/154 50/120/155 49/119/156
f 46/130/157 47/129/158 51/100/159 50/99/160
f 47/134/161 48/133/162 52/116/163 51/115/164
f 49/110/165 52/109/166 48/136/167 45/135/168
