# This file uses centimeters as units for non-parametric coordinates.

mtllib hannd.mtl
g default
v -16.144472 9.548933 -124.062330
v -16.177606 9.548933 -124.007633
v -16.177606 10.548933 -124.007633
v -16.177606 10.548933 -122.607717
v -16.144472 9.548933 -122.553020
v -16.177606 9.548933 -122.607717
v -16.196888 9.548933 -124.062330
v -16.196888 10.598933 -124.062330
v -16.144472 10.598933 -124.062330
v -16.196888 10.598933 -122.553020
v -16.144472 10.598933 -122.553020
v -16.196888 9.548933 -122.553020
v -16.196888 9.548933 -124.007633
v -16.196888 10.548933 -124.007633
v -16.196888 10.548933 -122.607717
v -16.196888 9.548933 -122.607717
v -16.144472 9.291246 -124.135395
v -16.323450 9.291246 -124.135395
v -16.144472 9.563272 -124.135395
v -16.323450 9.563272 -124.135395
v -16.144472 9.563272 -122.443069
v -16.323450 9.563272 -122.443069
v -16.144472 9.291246 -122.587617
v -16.323450 9.291246 -122.587617
v -16.184472 9.291246 -122.627618
v -16.283450 9.291246 -122.627618
v -16.283450 9.291246 -124.095395
v -16.184472 9.291246 -124.095395
v -16.184472 9.169826 -122.627618
v -16.283450 9.169826 -122.627618
v -16.283450 9.169826 -124.095395
v -16.184472 9.169826 -124.095395
v -16.278705 9.563272 -124.166340
v -16.258705 9.291246 -122.627618
v -16.278705 9.291246 -124.166340
v -16.233961 9.563272 -124.178335
v -16.233961 9.291246 -122.627618
v -16.233961 9.291246 -124.178335
v -16.189216 9.563272 -124.166340
v -16.209216 9.291246 -122.627618
v -16.189216 9.291246 -124.166340
v -16.144472 9.116958 -122.587617
v -16.144472 9.116958 -122.443069
v -16.323450 9.116958 -122.587617
v -16.323450 9.116958 -122.443069
vt 0.402154 0.017644
vt 0.419062 0.017644
vt 0.419062 0.356351
vt 0.402154 0.356351
vt 0.476502 0.486870
vt 0.493410 0.486870
vt 0.493410 0.973740
vt 0.476502 0.973740
vt 0.419051 0.017644
vt 0.435960 0.017644
vt 0.435960 0.356351
vt 0.419051 0.356351
vt 0.459605 0.486870
vt 0.470293 0.504514
vt 0.470293 0.956096
vt 0.459605 0.973740
vt 0.000000 0.938452
vt 0.000000 0.486870
vt 0.322578 0.486870
vt 0.322578 0.938452
vt 0.476513 0.973740
vt 0.341324 0.469226
vt 0.663902 0.469226
vt 0.680031 0.486870
vt 0.341324 0.486870
vt 0.663902 0.017644
vt 0.680031 0.000000
vt 0.338707 0.000000
vt 0.338707 0.486870
vt 0.000000 0.486870
vt 0.000000 0.000000
vt 0.341324 0.017644
vt 0.341324 0.000000
vt 0.476513 0.486870
vt 0.577885 0.340222
vt 0.577885 0.017644
vt 0.584105 0.017644
vt 0.584105 0.340222
vt 0.476513 0.956096
vt 0.493399 0.938452
vt 0.493399 0.486870
vt 0.499619 0.486870
vt 0.499619 0.938452
vt 0.571126 0.340222
vt 0.571126 0.017644
vt 0.577347 0.017644
vt 0.577347 0.340222
vt 0.476513 0.504514
vt 0.684944 0.017549
vt 0.684948 0.000000
vt 0.772698 0.000023
vt 0.772693 0.017573
vt 0.919209 0.013852
vt 0.933643 0.003869
vt 0.919209 0.559758
vt 0.684811 0.516828
vt 0.772548 0.563479
vt 0.324427 0.486870
vt 0.345312 0.499773
vt 0.337330 0.499773
vt 0.382161 0.486870
vt 0.382161 0.986148
vt 0.369258 0.973245
vt 0.369258 0.499773
vt 0.338860 0.996131
vt 0.324427 0.986148
vt 0.337330 0.973245
vt 0.584644 0.017644
vt 0.592626 0.017644
vt 0.584644 0.056811
vt 0.424424 0.486870
vt 0.424424 0.960342
vt 0.385257 0.960342
vt 0.385257 0.486870
vt 0.813061 0.046628
vt 0.813061 0.520101
vt 0.773893 0.520101
vt 0.773893 0.046628
vt 0.917864 0.545907
vt 0.830115 0.545907
vt 0.830115 0.046628
vt 0.917864 0.000000
vt 0.361276 0.499773
vt 0.616572 0.056812
vt 0.608590 0.017644
vt 0.616572 0.017644
vt 0.367728 0.996131
vt 0.917864 0.563456
vt 0.830115 0.563456
vt 0.353294 0.499773
vt 0.600608 0.017644
vt 0.353294 1.000000
vt 0.555655 0.105435
vt 0.555902 0.017686
vt 0.570846 0.017729
vt 0.570598 0.105478
vt 0.425810 0.960342
vt 0.425810 0.486870
vt 0.457738 0.486870
vt 0.457738 0.960342
vt 0.650367 0.056811
vt 0.618439 0.056811
vt 0.618439 0.017644
vt 0.650367 0.017644
vt 0.540711 0.105393
vt 0.540959 0.017644
vt 0.540027 0.017644
vt 0.540027 0.075378
vt 0.493399 0.075378
vt 0.493399 0.017644
vt 0.628577 0.563441
vt 0.628589 0.516813
vt 0.773893 0.046628
vt 0.773893 0.000000
vt 0.492170 0.017644
vt 0.492170 0.075378
vt 0.435949 0.075378
vt 0.435949 0.017644
vt 0.341324 0.017644
vt 0.399058 0.017644
vt 0.399058 0.161615
vt 0.341324 0.161615
vt 0.962510 0.003869
vt 0.976944 0.013852
vt 0.976944 0.559758
vt 0.948077 0.000000
vn -0.000000 0.000000 -1.000000
vn -0.000000 0.000000 -1.000000
vn -0.000000 0.000000 -1.000000
vn -0.000000 0.000000 -1.000000
vn -0.000000 1.000000 0.000000
vn -0.000000 1.000000 0.000000
vn -0.000000 1.000000 0.000000
vn -0.000000 1.000000 0.000000
vn 0.000000 0.000000 1.000000
vn 0.000000 0.000000 1.000000
vn 0.000000 0.000000 1.000000
vn 0.000000 0.000000 1.000000
vn 0.000000 -1.000000 0.000000
vn 0.000000 -1.000000 0.000000
vn 0.000000 -1.000000 0.000000
vn 0.000000 -1.000000 0.000000
vn -1.000000 0.000000 0.000000
vn -1.000000 0.000000 0.000000
vn -1.000000 0.000000 0.000000
vn -1.000000 0.000000 0.000000
vn 0.000000 -1.000000 0.000000
vn 0.000000 -1.000000 0.000000
vn 0.000000 -1.000000 0.000000
vn -1.000000 0.000000 0.000000
vn -1.000000 0.000000 0.000000
vn -1.000000 0.000000 0.000000
vn -1.000000 0.000000 0.000000
vn -1.000000 0.000000 0.000000
vn -1.000000 0.000000 0.000000
vn -1.000000 0.000000 0.000000
vn -1.000000 0.000000 0.000000
vn 1.000000 0.000000 -0.000000
vn 1.000000 0.000000 -0.000000
vn 1.000000 0.000000 -0.000000
vn 1.000000 0.000000 -0.000000
vn -1.000000 0.000000 0.000000
vn -1.000000 0.000000 0.000000
vn -1.000000 0.000000 0.000000
vn -1.000000 0.000000 0.000000
vn 0.000000 -1.000000 0.000000
vn 0.000000 -1.000000 0.000000
vn 0.000000 -1.000000 0.000000
vn 0.000000 0.000000 1.000000
vn 0.000000 0.000000 1.000000
vn 0.000000 0.000000 1.000000
vn 0.000000 0.000000 1.000000
vn 0.000000 -1.000000 0.000000
vn 0.000000 -1.000000 0.000000
vn 0.000000 -1.000000 0.000000
vn 0.000000 -1.000000 0.000000
vn 0.000000 -1.000000 0.000000
vn 0.000000 -1.000000 0.000000
vn 0.000000 -1.000000 0.000000
vn -0.000000 0.000000 -1.000000
vn -0.000000 0.000000 -1.000000
vn -0.000000 0.000000 -1.000000
vn -0.000000 0.000000 -1.000000
vn 0.000000 -1.000000 0.000000
vn 0.000000 -1.000000 0.000000
vn 0.000000 -1.000000 0.000000
vn 0.568820 0.000000 -0.822462
vn 0.432613 0.000000 -0.901580
vn 0.432613 0.000000 -0.901580
vn 0.568820 0.000000 -0.822462
vn -0.000000 1.000000 0.000000
vn 0.000000 1.000000 0.000000
vn 0.000000 1.000000 0.000000
vn 1.000000 0.000000 -0.000000
vn 1.000000 0.000000 -0.000000
vn 1.000000 0.000000 -0.000000
vn 1.000000 0.000000 -0.000000
vn 0.000000 -1.000000 0.000000
vn -0.000000 -1.000000 -0.000001
vn 0.000000 -1.000000 0.000000
vn 0.000000 -1.000000 0.000000
vn 0.000000 -1.000000 0.000000
vn 0.000000 -1.000000 0.000000
vn 0.000000 -1.000000 0.000000
vn 0.000000 -1.000000 0.000000
vn 0.000000 -1.000000 0.000000
vn 0.000000 -1.000000 0.000000
vn 0.000000 -1.000000 0.000000
vn 0.000000 -1.000000 0.000000
vn 0.000000 -1.000000 0.000000
vn 0.000000 -1.000000 0.000000
vn 0.000000 0.000000 1.000000
vn 0.000000 0.000000 1.000000
vn 0.000000 0.000000 1.000000
vn -1.000000 0.000000 0.000000
vn -1.000000 0.000000 0.000000
vn -1.000000 0.000000 0.000000
vn -1.000000 0.000000 0.000000
vn 1.000000 0.000000 -0.000000
vn 1.000000 0.000000 -0.000000
vn 1.000000 0.000000 -0.000000
vn 1.000000 0.000000 -0.000000
vn -1.000000 0.000000 0.000000
vn -1.000000 0.000000 0.000000
vn -1.000000 0.000000 0.000000
vn -1.000000 0.000000 0.000000
vn 0.000000 -1.000000 0.000000
vn 0.000000 -1.000000 0.000000
vn 0.000000 -1.000000 0.000000
vn 0.000000 0.000000 1.000000
vn 0.000000 0.000000 1.000000
vn 0.000000 0.000000 1.000000
vn 0.000000 -1.000000 0.000000
vn 0.000000 -1.000000 0.000000
vn 0.000000 -1.000000 0.000000
vn -0.432613 0.000000 -0.901580
vn -0.432613 0.000000 -0.901580
vn -0.568820 0.000000 -0.822462
vn -0.568820 0.000000 -0.822462
vn 0.000000 -1.000000 0.000000
vn 0.000000 -1.000000 0.000000
vn 0.000000 -1.000000 0.000000
vn 0.000000 -1.000000 0.000000
vn 0.000000 0.000000 1.000000
vn 0.000000 0.000000 1.000000
vn 0.000000 0.000000 1.000000
vn 0.000000 -1.000000 0.000000
vn 0.000000 -1.000000 0.000000
vn 0.000000 -1.000000 0.000000
vn -0.000000 0.000000 -1.000000
vn -0.000000 0.000000 -1.000000
vn -0.432613 0.000000 -0.901580
vn -0.432613 0.000000 -0.901580
vn -0.000000 -1.000000 -0.000001
vn 0.000000 -1.000000 0.000000
vn 0.000000 -1.000000 0.000000
vn 0.000000 0.000000 1.000000
vn 0.000000 0.000000 1.000000
vn 0.000000 0.000000 1.000000
vn 0.000000 0.000000 1.000000
vn 0.000000 -1.000000 0.000000
vn 0.000000 -1.000000 0.000000
vn 0.000000 -1.000000 0.000000
vn 0.000000 -1.000000 0.000000
vn -0.000000 0.000000 -1.000000
vn -0.000000 0.000000 -1.000000
vn -0.000000 0.000000 -1.000000
vn -0.000000 0.000000 -1.000000
vn 0.000000 -1.000000 0.000000
vn 0.000000 -1.000000 0.000000
vn 0.000000 -1.000000 0.000000
vn 0.000000 -1.000000 0.000000
vn 0.432613 0.000000 -0.901580
vn 0.432613 0.000000 -0.901580
vn -0.000000 0.000000 -1.000000
vn -0.000000 0.000000 -1.000000
vn 0.000000 -1.000000 0.000000
vn 0.000000 -1.000000 0.000000
vn 0.000000 -1.000000 0.000000
vn 0.000000 -1.000000 0.000000
vn 1.000000 0.000000 -0.000000
vn 1.000000 0.000000 -0.000000
vn 1.000000 0.000000 -0.000000
vn 1.000000 0.000000 -0.000000
vn -1.000000 0.000000 0.000000
vn -1.000000 0.000000 0.000000
vn -1.000000 0.000000 0.000000
vn -1.000000 0.000000 0.000000
vn -0.000000 0.000000 -1.000000
vn -0.000000 0.000000 -1.000000
vn -0.000000 0.000000 -1.000000
vn -0.000000 0.000000 -1.000000
vn 0.000000 0.000000 1.000000
vn 0.000000 0.000000 1.000000
vn 0.000000 0.000000 1.000000
vn 0.000000 0.000000 1.000000
vn -0.000000 1.000000 0.000000
vn -0.000000 1.000000 0.000000
vn 0.000000 1.000000 0.000000
vn 0.000000 1.000000 0.000000
vn -0.000000 1.000000 0.000000
vn 0.000000 1.000000 0.000000
vn 0.000000 1.000000 0.000000
vn 0.000000 1.000000 0.000000
vn 0.000000 1.000000 0.000000
vn 0.000000 1.000000 0.000000
s off
g hand_pCube6
usemtl hand_lambert2SG
f 1/1/1 7/2/2 8/3/3 9/4/4
f 9/5/5 8/6/6 10/7/7 11/8/8
f 11/9/9 10/10/10 12/11/11 5/12/12
f 5/13/13 6/14/14 2/15/15 1/16/16
f 2/17/17 6/18/18 4/19/19 3/20/20
f 1/16/21 2/15/22 7/21/23
f 13/22/24 14/23/25 8/24/26 7/25/27
f 14/23/28 15/26/29 10/27/30 8/24/31
f 9/28/32 11/29/33 5/30/34 1/31/35
f 15/26/36 16/32/37 12/33/38 10/27/39
f 6/14/40 5/13/41 12/34/42
f 2/35/43 3/36/44 14/37/45 13/38/46
f 7/21/47 2/15/48 13/39/49
f 3/40/50 4/41/51 15/42/52 14/43/53
f 4/44/54 6/45/55 16/46/56 15/47/57
f 6/14/58 12/34/59 16/48/60
f 17/49/61 41/50/62 39/51/63 19/52/64
f 19/53/65 39/54/66 21/55/67
f 23/56/68 17/49/69 19/52/70 21/57/71
f 23/58/72 40/59/73 25/60/74
f 24/61/75 18/62/76 27/63/77 26/64/78
f 41/65/79 17/66/80 28/67/81
f 17/66/82 23/58/83 25/60/84 28/67/85
f 25/68/86 40/69/87 29/70/88
f 26/71/89 27/72/90 31/73/91 30/74/92
f 28/75/93 25/76/94 29/77/95 32/78/96
f 20/79/97 18/80/98 24/81/99 22/82/100
f 34/83/101 24/61/102 26/64/103
f 30/84/104 34/85/105 26/86/106
f 18/62/107 35/87/108 27/63/109
f 33/88/110 35/89/111 18/80/112 20/79/113
f 37/90/114 23/58/115 24/61/116 34/83/117
f 30/84/118 37/91/119 34/85/120
f 35/87/121 38/92/122 27/63/123
f 36/93/124 38/94/125 35/95/126 33/96/127
f 40/59/128 23/58/129 37/90/130
f 29/70/131 40/69/132 37/91/133 30/84/134
f 32/97/135 29/98/136 30/99/137 31/100/138
f 27/101/139 28/102/140 32/103/141 31/104/142
f 38/92/143 41/65/144 28/67/145 27/63/146
f 39/105/147 41/106/148 38/94/149 36/93/150
f 44/107/151 42/108/152 43/109/153 45/110/154
f 23/56/155 21/57/156 43/111/157 42/112/158
f 22/82/159 24/81/160 44/113/161 45/114/162
f 24/115/163 23/116/164 42/117/165 44/118/166
f 21/119/167 22/120/168 45/121/169 43/122/170
f 33/123/171 20/124/172 22/125/173
f 36/126/174 33/123/175 22/125/176
f 21/55/177 39/54/178 36/126/179 22/125/180
