# This file uses centimeters as units for non-parametric coordinates.

mtllib policeboxlow.mtl
g default
v 1.176056 0.250265 0.737576
v 2.282415 0.250265 0.737576
v 1.282344 1.116380 0.737576
v 2.176127 1.116380 0.737576
v 1.282344 1.116380 -0.737576
v 2.176127 1.116380 -0.737576
v 1.176056 0.250265 -0.737576
v 2.282415 0.250265 -0.737576
v 1.282344 0.997884 0.737576
v 2.176127 0.997884 0.737576
v 2.282415 0.997884 0.737576
v 2.282415 0.997884 -0.737576
v 2.176127 0.997884 -0.737576
v 1.282344 0.997884 -0.737576
v 1.176056 0.997884 -0.737576
v 1.176056 0.997884 0.737576
v 2.295170 0.997884 0.750330
v 2.295170 1.129135 0.750330
v 2.295170 0.997884 -0.750330
v 2.176127 0.997884 -0.750330
v 2.176127 1.129135 -0.750330
v 2.295170 1.129135 -0.750330
v 2.176127 1.129135 0.750330
v 2.176127 0.997884 0.750330
v 1.163302 0.997884 0.750330
v 1.163302 1.129135 0.750330
v 1.282344 0.997884 0.750330
v 1.282344 1.129135 0.750330
v 1.282344 1.129135 -0.750330
v 1.282344 0.997884 -0.750330
v 1.163302 0.997884 -0.750330
v 1.163302 1.129135 -0.750330
vt 0.370710 0.215994
vt 0.028218 0.215994
vt 0.028218 0.164975
vt 0.370710 0.164975
vt 0.995925 0.996165
vt 0.705315 0.996165
vt 0.705315 0.659494
vt 0.995925 0.659494
vt 0.705315 0.650526
vt 0.705315 0.313855
vt 0.995925 0.313855
vt 0.995925 0.650526
vt 0.370710 0.232275
vt 0.370710 0.283294
vt 0.028218 0.283294
vt 0.028218 0.232275
vt 0.855536 0.213637
vt 0.855536 0.167585
vt 0.858447 0.162627
vt 0.858447 0.213636
vt 0.518870 0.167585
vt 0.515959 0.162627
vt 0.518870 0.213655
vt 0.515959 0.213655
vt 0.855537 0.287332
vt 0.855537 0.241242
vt 0.858448 0.236284
vt 0.858448 0.287332
vt 0.518869 0.241242
vt 0.518869 0.287274
vt 0.515958 0.287274
vt 0.515958 0.236284
vt 0.378422 0.077260
vt 0.020506 0.077260
vt 0.020506 0.032980
vt 0.378422 0.032980
vt 0.364998 0.644334
vt 0.697454 0.644334
vt 0.697454 0.996165
vt 0.364998 0.996165
vt 0.020506 0.144686
vt 0.020506 0.100406
vt 0.378422 0.100406
vt 0.378422 0.144686
vt 0.004777 0.584638
vt 0.356608 0.584638
vt 0.356608 0.996165
vt 0.004777 0.996165
vt 0.511280 0.026126
vt 0.511280 0.065663
vt 0.508238 0.065663
vt 0.508238 0.021382
vt 0.863126 0.026126
vt 0.866168 0.021382
vt 0.863126 0.065663
vt 0.866168 0.065663
vt 0.511285 0.095137
vt 0.511285 0.134673
vt 0.508243 0.134673
vt 0.508243 0.090393
vt 0.863121 0.095137
vt 0.866163 0.090393
vt 0.863121 0.134673
vt 0.866163 0.134673
vt 0.654886 0.539717
vt 0.654886 0.576601
vt 0.400142 0.576601
vt 0.400142 0.539717
vt 0.369848 0.307011
vt 0.685180 0.307011
vt 0.685180 0.539717
vt 0.369848 0.539717
vt 0.043904 0.576601
vt 0.043904 0.539717
vt 0.298647 0.539717
vt 0.298647 0.576601
vt 0.013610 0.307011
vt 0.328941 0.307011
vt 0.328941 0.539717
vt 0.013610 0.539717
vt 0.477547 0.628896
vt 0.443618 0.628896
vt 0.443618 0.588043
vt 0.477547 0.588043
vt 0.490392 0.628896
vt 0.490392 0.588043
vt 0.524321 0.588043
vt 0.524321 0.628896
vt 0.537166 0.588043
vt 0.571095 0.588043
vt 0.571095 0.628896
vt 0.537166 0.628896
vt 0.617869 0.588043
vt 0.617869 0.628896
vt 0.583939 0.628896
vt 0.583939 0.588043
vn 0.000000 0.000000 1.000000
vn 0.000000 0.000000 1.000000
vn 0.000000 0.000000 1.000000
vn 0.000000 0.000000 1.000000
vn 0.000000 0.000000 -1.000000
vn 0.000000 0.000000 -1.000000
vn 0.000000 0.000000 -1.000000
vn 0.000000 0.000000 -1.000000
vn 0.000000 0.000000 -1.000000
vn 0.000000 0.000000 -1.000000
vn 0.000000 0.000000 -1.000000
vn 0.000000 0.000000 -1.000000
vn 0.000000 0.000000 1.000000
vn 0.000000 0.000000 1.000000
vn 0.000000 0.000000 1.000000
vn 0.000000 0.000000 1.000000
vn 0.000000 0.000000 1.000000
vn 0.000000 0.000000 1.000000
vn 0.000000 0.000000 1.000000
vn 0.000000 0.000000 1.000000
vn 0.000000 0.000000 -1.000000
vn 0.000000 0.000000 -1.000000
vn 0.000000 0.000000 -1.000000
vn 0.000000 0.000000 -1.000000
vn 0.000000 0.000000 1.000000
vn 0.000000 0.000000 1.000000
vn 0.000000 0.000000 1.000000
vn 0.000000 0.000000 1.000000
vn 0.000000 0.000000 1.000000
vn 0.000000 0.000000 1.000000
vn 0.000000 0.000000 1.000000
vn 0.000000 0.000000 -1.000000
vn 0.000000 0.000000 -1.000000
vn 0.000000 0.000000 -1.000000
vn 0.000000 0.000000 -1.000000
vn 0.000000 0.000000 -1.000000
vn 0.000000 0.000000 -1.000000
vn 0.000000 0.000000 -1.000000
vn 0.000000 0.000000 -1.000000
vn 0.000000 0.000000 -1.000000
vn 0.000000 0.000000 -1.000000
vn 0.000000 0.000000 1.000000
vn 0.000000 0.000000 1.000000
vn 0.000000 0.000000 1.000000
vn 0.000000 1.000000 0.000000
vn 0.000000 1.000000 0.000000
vn 0.000000 1.000000 0.000000
vn 0.000000 1.000000 0.000000
vn 0.000000 1.000000 0.000000
vn 0.000000 1.000000 0.000000
vn 0.000000 1.000000 0.000000
vn 0.000000 1.000000 0.000000
vn 0.000000 1.000000 0.000000
vn 0.000000 1.000000 0.000000
vn 0.000000 1.000000 0.000000
vn 0.000000 1.000000 0.000000
vn -1.000000 0.000000 0.000000
vn -1.000000 0.000000 0.000000
vn -1.000000 0.000000 0.000000
vn -1.000000 0.000000 0.000000
vn -1.000000 -0.000000 0.000000
vn -1.000000 -0.000000 0.000000
vn -1.000000 -0.000000 0.000000
vn -1.000000 -0.000000 0.000000
vn 0.000000 -1.000000 0.000000
vn 0.000000 -1.000000 0.000000
vn 0.000000 -1.000000 0.000000
vn 0.000000 -1.000000 0.000000
vn 1.000000 -0.000000 0.000000
vn 1.000000 -0.000000 0.000000
vn 1.000000 -0.000000 0.000000
vn 1.000000 -0.000000 0.000000
vn 1.000000 0.000000 0.000000
vn 1.000000 0.000000 0.000000
vn 1.000000 0.000000 0.000000
vn 1.000000 0.000000 0.000000
vn 0.000000 -1.000000 0.000000
vn 0.000000 -1.000000 -0.000000
vn 0.000000 -1.000000 -0.000000
vn 0.000000 -1.000000 0.000000
vn -1.000000 0.000000 0.000000
vn -1.000000 0.000001 0.000000
vn -1.000000 0.000001 0.000000
vn -1.000000 0.000000 0.000000
vn -1.000000 0.000001 0.000000
vn -1.000000 0.000000 0.000000
vn -1.000000 0.000000 0.000000
vn -1.000000 0.000001 0.000000
vn 0.000000 -1.000000 0.000000
vn 0.000000 -1.000000 0.000000
vn 0.000000 -1.000000 0.000000
vn 0.000000 -1.000000 0.000000
vn 0.000000 -1.000000 0.000000
vn 0.000000 -1.000000 0.000001
vn 0.000000 -1.000000 0.000001
vn 0.000000 -1.000000 0.000000
vn 1.000000 0.000000 0.000000
vn 1.000000 0.000001 0.000000
vn 1.000000 0.000001 0.000000
vn 1.000000 0.000000 0.000000
vn 1.000000 0.000001 0.000000
vn 1.000000 0.000000 0.000000
vn 1.000000 0.000000 0.000000
vn 1.000000 0.000001 0.000000
vn 0.000000 -1.000000 -0.000002
vn 0.000000 -1.000000 -0.000000
vn 0.000000 -1.000000 -0.000000
vn 0.000000 -1.000000 -0.000002
s off
g pCube2
usemtl blinn2SG
f 10/65/1 4/66/2 3/67/3 9/68/4
f 6/73/5 13/74/6 14/75/7 5/76/8
f 19/81/9 20/82/10 21/83/11 22/84/12
f 23/85/13 24/86/14 17/87/15 18/88/16
f 25/89/17 27/90/18 28/91/19 26/92/20
f 29/93/21 30/94/22 31/95/23 32/96/24
f 1/69/25 2/70/26 10/65/27 9/68/28
f 2/70/29 11/71/30 10/65/31
f 8/77/32 13/74/33 12/80/34
f 8/77/35 7/78/36 14/75/37 13/74/38
f 7/78/39 15/79/40 14/75/41
f 1/69/42 9/68/43 16/72/44
f 21/33/45 23/34/46 18/35/47 22/36/48
f 3/37/49 4/38/50 6/39/51 5/40/52
f 26/41/53 28/42/54 29/43/55 32/44/56
f 31/1/57 25/2/58 26/3/59 32/4/60
f 15/5/61 7/6/62 1/7/63 16/8/64
f 8/45/65 2/46/66 1/47/67 7/48/68
f 2/9/69 8/10/70 12/11/71 11/12/72
f 18/13/73 17/14/74 19/15/75 22/16/76
s 1
f 12/49/77 13/50/78 20/51/79 19/52/80
s 2
f 13/17/81 6/18/82 21/19/83 20/20/84
f 4/21/85 10/23/86 24/24/87 23/22/88
s 1
f 10/55/89 11/53/90 17/54/91 24/56/92
s 2
f 6/18/82 4/21/85 23/22/88 21/19/83
s 1
f 11/53/90 12/49/77 19/52/80 17/54/91
s 3
f 16/57/93 9/58/94 27/59/95 25/60/96
s 4
f 9/25/97 3/26/98 28/27/99 27/28/100
f 5/29/101 14/30/102 30/31/103 29/32/104
s 3
f 14/63/105 15/61/106 31/62/107 30/64/108
s 4
f 3/26/98 5/29/101 29/32/104 28/27/99
s 3
f 15/61/106 16/57/93 25/60/96 31/62/107
