# This file uses centimeters as units for non-parametric coordinates.

mtllib room.mtl
g default
v -31.648626 4.813149 -62.080925
v 15.847950 4.813149 -62.080925
v -31.648626 25.713285 -62.080925
v 15.847950 25.713285 -62.080925
v -31.648626 26.484371 -63.080925
v 16.639212 26.484371 -63.080925
v -31.648626 4.813149 -63.080925
v 16.639212 4.813149 -63.080925
v -27.808821 4.813149 -62.080925
v -8.973683 24.023106 -62.080925
v -8.973682 24.023106 -63.080925
v -13.617404 21.473001 -63.080925
v -26.011551 21.473001 -63.080925
v -13.617404 21.473001 -62.080925
v 10.101400 4.813149 -62.080925
v 10.101400 22.806950 -62.080925
v 9.077501 24.023106 -63.080925
v 10.101400 22.806950 -63.080925
v -27.808821 9.268275 -62.080925
v -26.011555 9.932406 -63.080925
v -26.011551 21.473001 -62.080925
v -26.011551 9.932406 -62.080925
v -27.160824 20.312981 -62.080925
v -27.160824 20.312977 -63.080925
v 9.077501 9.932406 -63.080925
v 9.077497 24.023106 -62.080925
v 9.077497 9.932406 -62.080925
v -27.160824 11.056011 -62.080925
v 10.101400 11.056008 -62.080925
v 10.101400 11.056011 -63.080925
v -27.160826 11.056009 -63.080925
v 10.101400 9.268273 -62.080925
v -27.808821 7.797030 -57.810211
v -27.808821 4.813149 -60.060711
v 10.101400 7.797028 -57.810211
v 10.101400 4.813149 -60.060711
v -27.808821 8.226561 -62.080925
v -27.808821 6.755315 -57.810211
v 10.101400 6.755313 -57.810211
v 10.101400 8.226559 -62.080925
vt 0.089950 0.543081
vt 0.089950 0.765545
vt 0.000000 0.866726
vt 0.044178 0.459730
vt 0.767748 0.852523
vt 0.691610 0.751364
vt 0.691548 0.528899
vt 0.737297 0.445536
vt 0.071340 0.117348
vt 0.089289 0.117348
vt 0.089289 0.492488
vt 0.071340 0.506328
vt 0.767510 0.000000
vt 0.715373 0.103160
vt 0.504453 0.103219
vt 0.392370 0.000104
vt 0.788429 0.117347
vt 0.770473 0.000000
vt 0.788423 0.014201
vt 1.000000 0.018379
vt 0.999982 0.648197
vt 0.472554 0.783684
vt 0.988080 0.000000
vt 0.388980 0.000000
vt 0.388980 0.866726
vt 0.297094 0.765545
vt 0.297094 0.135726
vt 0.000000 0.000000
vt 0.044178 0.135726
vt 0.985756 0.866726
vt 0.482388 0.471100
vt 0.737207 0.121532
vt 0.066007 0.117348
vt 0.479464 0.082131
vt 0.276926 0.117348
vt 0.276926 0.786174
vt 0.670794 0.771998
vt 0.504639 0.772044
vt 0.453124 0.059160
vt 0.453124 0.688979
vt 0.435174 0.688979
vt 0.435174 0.059160
vt 0.267639 0.117348
vt 0.267642 0.144634
vt 0.249693 0.144635
vt 0.249690 0.117350
vt 0.267662 0.355553
vt 0.249713 0.355555
vt 0.267665 0.384088
vt 0.249715 0.384090
vt 0.431722 0.039471
vt 0.431734 0.363474
vt 0.413785 0.363475
vt 0.413772 0.039471
vt 0.431738 0.458566
vt 0.413788 0.458567
vt 0.413797 0.681032
vt 0.431746 0.681031
vt 0.634927 0.327496
vt 0.634931 0.298186
vt 0.652881 0.298189
vt 0.652876 0.327499
vt 0.652908 0.132035
vt 0.634959 0.132032
vt 0.634964 0.103183
vt 0.652913 0.103186
vt 0.770525 0.866726
vt 0.788470 0.797804
vt 0.788474 0.866725
vt 0.110771 0.786174
vt 0.392608 0.852628
vt 0.453856 0.783689
vt 0.411068 0.019781
vt 0.411068 0.700237
vt 0.392370 0.700237
vt 0.392370 0.019781
vt 0.791875 0.000000
vt 0.853143 0.103146
vt 0.092742 0.197314
vt 0.092742 0.178616
vt 0.169398 0.152208
vt 0.169398 0.170906
vt 0.824731 0.797801
vt 0.824690 0.117345
vt 0.881050 0.000011
vt 0.962127 0.000000
vt 0.962221 0.680456
vt 0.881144 0.680467
vt 0.171216 0.152208
vt 0.247872 0.178616
vt 0.247872 0.197314
vt 0.171216 0.170906
vt 0.392589 0.783707
vt 0.092742 0.117348
vt 0.129003 0.117348
vt 0.878088 0.797798
vt 0.878047 0.117342
vt 0.247872 0.117348
vt 0.211611 0.117348
vt 0.791875 0.103146
vt 0.988060 0.680456
vt 0.484466 0.751421
vt 0.456576 0.082303
vt 0.963170 0.014200
vt 0.459396 0.457432
vt 0.963091 0.866724
vt 0.985837 0.000000
vt 0.481545 0.114142
vt 0.503451 0.114142
vt 0.633503 0.103183
vt 0.485989 0.141063
vt 0.502948 0.136704
vt 0.633460 0.136704
vt 0.622004 0.151482
vn -0.000000 0.000000 -1.000000
vn 0.000001 0.000000 -1.000000
vn 0.000000 0.000000 -1.000000
vn -0.000000 0.000000 -1.000000
vn 0.000000 0.000000 1.000000
vn 0.000000 0.000000 1.000000
vn 0.000000 0.000000 1.000000
vn 0.000000 0.000000 1.000000
vn -1.000000 0.000000 0.000000
vn -1.000000 0.000000 0.000000
vn -1.000000 0.000000 0.000000
vn -1.000000 0.000000 0.000000
vn 0.000000 0.000000 1.000000
vn 0.000000 0.000000 1.000000
vn -0.000000 0.000000 1.000000
vn -0.000000 0.000000 1.000000
vn 0.000000 -1.000000 0.000000
vn 0.000000 -1.000000 0.000000
vn 0.000000 -1.000000 0.000000
vn -0.000000 0.000000 1.000000
vn 0.000000 0.000000 1.000000
vn -0.000001 0.000000 1.000000
vn -0.000001 0.000000 1.000000
vn -0.000000 0.000000 -1.000000
vn 0.000000 0.000000 -1.000000
vn 0.000000 0.000000 -1.000000
vn 0.000000 0.000000 -1.000000
vn -0.000001 0.000000 -1.000000
vn 0.000000 0.000000 -1.000000
vn 0.000000 0.791913 0.610634
vn 0.000000 0.791913 0.610634
vn 0.000000 0.791913 0.610634
vn 0.000000 0.791913 0.610634
vn 0.000000 0.000000 1.000000
vn -0.000001 0.000000 -1.000000
vn 0.784202 0.000000 0.620506
vn 0.784202 0.000000 0.620506
vn 0.784202 0.000000 0.620506
vn 0.784202 0.000000 0.620506
vn -0.000001 0.000000 -1.000000
vn 0.000000 0.000000 -1.000000
vn 0.000000 0.000000 1.000000
vn 0.000000 0.000000 1.000000
vn 0.000000 1.000000 0.000001
vn 0.000000 1.000000 0.000001
vn 0.000000 1.000000 0.000001
vn 0.000000 1.000000 0.000001
vn -0.739140 0.673552 -0.000000
vn -0.739140 0.673552 -0.000000
vn -0.739140 0.673552 -0.000000
vn -0.739140 0.673552 -0.000000
vn -1.000000 0.000000 0.000000
vn -1.000000 0.000000 0.000000
vn -1.000000 0.000000 0.000000
vn -1.000000 0.000000 0.000000
vn -0.764983 -0.644051 -0.000001
vn -0.764983 -0.644051 -0.000001
vn -0.764983 -0.644051 -0.000001
vn -0.764983 -0.644051 -0.000001
vn 0.000000 -1.000000 -0.000002
vn 0.000000 -1.000000 -0.000002
vn 0.000000 -1.000000 -0.000002
vn 0.000000 -1.000000 -0.000002
vn 0.481348 -0.876530 0.000000
vn 0.481348 -0.876530 0.000000
vn 0.481348 -0.876530 0.000000
vn 0.481348 -0.876530 0.000000
vn 0.000000 -1.000000 0.000000
vn 0.000000 -1.000000 0.000000
vn 0.000000 -1.000000 0.000000
vn 0.000000 -1.000000 0.000000
vn 0.710392 -0.703806 0.000000
vn 0.710392 -0.703806 0.000000
vn 0.710392 -0.703806 0.000000
vn 0.710392 -0.703806 0.000000
vn 1.000000 0.000000 -0.000001
vn 1.000000 0.000000 -0.000001
vn 1.000000 0.000000 -0.000001
vn 1.000000 0.000000 -0.000001
vn 0.699076 0.715047 -0.000004
vn 0.699076 0.715047 -0.000004
vn 0.699076 0.715047 -0.000004
vn 0.699076 0.715047 -0.000004
vn 0.000000 -1.000000 0.000000
vn 0.000000 -1.000000 0.000000
vn 0.000000 -1.000000 0.000000
vn 0.000000 0.000000 -1.000000
vn -0.000000 0.000000 1.000000
vn -0.000007 0.000000 1.000000
vn 0.000000 0.000000 1.000000
vn 0.000000 0.000000 1.000000
vn 0.000000 0.000000 1.000000
vn 0.000000 0.000000 1.000000
vn -1.000000 0.000000 0.000000
vn -1.000000 0.000000 0.000000
vn -1.000000 0.000000 0.000000
vn -1.000000 0.000000 0.000000
vn 0.000000 -1.000000 0.000000
vn 0.000000 -1.000000 0.000000
vn 0.000000 -1.000000 0.000000
vn 0.000000 -1.000000 0.000000
vn 0.000000 0.945469 0.325711
vn 0.000000 0.945470 0.325711
vn 0.000000 0.945469 0.325711
vn 0.000000 0.945470 0.325711
vn 1.000000 0.000000 0.000000
vn 1.000000 0.000000 0.000000
vn 1.000000 0.000000 0.000000
vn 1.000000 0.000000 0.000000
vn 0.000000 0.000000 1.000000
vn -1.000000 0.000000 0.000000
vn -1.000000 0.000000 0.000000
vn -0.000000 -0.757064 0.653341
vn -0.000000 -0.757064 0.653341
vn -0.000000 -0.757064 0.653341
vn -0.000000 -0.757064 0.653341
vn 1.000000 0.000000 0.000000
vn 1.000000 0.000000 0.000000
vn 1.000000 0.000000 0.000000
vn 1.000000 0.000000 0.000000
vn 0.000000 0.000000 1.000000
vn 0.000000 0.000000 1.000000
vn 0.000000 -1.000000 0.000000
vn 0.000000 -1.000000 0.000000
vn 0.000000 -1.000000 0.000000
vn 0.000000 -1.000000 0.000000
s 1
g polySurface3 polySurface1
usemtl lambert8SG
f 12/1/1 13/2/2 5/3/3
f 11/4/4 12/1/1 5/3/3
s 2
f 3/5/5 21/6/6 14/7/7
f 14/7/7 10/8/8 3/5/5
s off
f 7/9/9 1/10/10 3/11/11 5/12/12
s 2
f 4/13/13 16/14/14 29/15/15 2/16/16
s off
f 15/17/17 8/18/18 2/19/19
s 2
f 27/20/20 22/21/21 19/101/22 32/23/23
s 1
f 8/24/24 7/25/25 20/26/26 25/27/27
f 6/28/28 17/29/29 11/4/4 5/3/3
s off
f 5/30/30 3/106/31 4/104/32 6/107/33
s 2
f 3/5/5 10/8/8 26/32/34 4/13/13
s 1
f 6/28/28 18/33/35 17/29/29
s off
f 6/31/36 4/105/37 2/103/38 8/34/39
s 2
f 26/32/34 16/14/14 4/13/13
s 1
f 8/24/24 25/27/27 30/35/40
f 31/36/41 20/26/26 7/25/25
s 2
f 23/37/42 21/6/6 3/5/5
f 22/102/21 28/38/43 19/22/22
s off
f 25/39/44 20/40/45 22/41/46 27/42/47
f 27/43/48 29/44/49 30/45/50 25/46/51
f 29/44/52 16/47/53 18/48/54 30/45/55
f 16/47/56 26/49/57 17/50/58 18/48/59
f 26/51/60 10/52/61 11/53/62 17/54/63
f 10/52/64 14/55/65 12/56/66 11/53/67
f 13/57/68 12/56/69 14/55/70 21/58/71
f 21/59/72 23/60/73 24/61/74 13/62/75
f 31/63/76 24/61/77 23/60/78 28/64/79
f 28/64/80 22/65/81 20/66/82 31/63/83
f 7/67/84 9/68/85 1/69/86
s 1
f 5/3/3 24/70/87 31/36/41 7/25/25
f 5/3/3 13/2/2 24/70/87
s 2
f 1/71/88 28/38/43 23/37/42 3/5/5
f 1/71/88 19/22/22 28/38/43
f 1/71/88 37/72/89 19/22/22
s off
f 35/73/90 33/74/91 38/75/92 39/76/93
s 6
f 19/79/94 37/80/95 38/81/96 33/82/97
s off
f 34/83/98 9/68/99 15/17/100 36/84/101
f 35/85/102 32/86/103 19/87/104 33/88/105
f 39/89/106 40/90/107 32/91/108 35/92/109
s 2
f 1/71/88 9/93/110 37/72/89
s 6
f 38/81/96 37/80/95 9/94/111 34/95/112
s off
f 38/96/113 34/83/114 36/84/115 39/97/116
f 15/98/117 40/90/118 39/89/119 36/99/120
s 2
f 2/77/16 40/78/121 15/100/122
s 1
f 18/33/35 6/28/28 8/24/24 30/35/40
s off
f 7/67/123 8/18/124 15/17/125 9/68/126
s 2
f 27/108/20 32/109/23 2/110/16 29/111/15
f 2/112/16 32/113/23 40/114/121
g default
v -8.973684 24.023106 -62.953712
v -13.617406 21.473001 -62.953712
v -26.011553 21.473001 -62.953712
v -26.011553 9.932406 -62.953712
v -27.160826 20.312981 -62.953712
v 9.077495 24.023106 -62.953712
v 9.077495 9.932406 -62.953712
v 10.101395 22.806950 -62.953712
v -27.160826 11.056011 -62.953712
v 10.101395 11.056007 -62.953712
v -13.617399 9.932406 -62.953712
v -8.973684 9.932406 -62.953712
v 9.077495 24.023106 -62.442684
v 9.077495 9.932406 -62.442684
v 10.101395 11.056007 -62.442684
v 10.101395 22.806950 -62.442684
v -26.011551 21.473001 -62.442684
v -26.011551 9.932406 -62.442684
v -27.160822 20.312981 -62.442684
v -27.160822 11.056011 -62.442684
v -8.973684 24.023106 -62.442684
v -8.973684 9.932406 -62.442684
v -13.617406 21.473001 -62.442684
v -13.617399 9.932406 -62.442684
vt 0.378150 0.027478
vt 0.000000 0.027478
vt 0.030154 0.000000
vt 0.345512 0.000000
vt 0.000000 0.969157
vt 0.309713 0.969157
vt 0.278582 1.000000
vt 0.030154 1.000000
vt 0.378150 0.511915
vt 0.000000 0.511915
vt 0.000000 0.636537
vt 0.309713 0.636537
vt 0.380749 0.027478
vt 0.413387 0.000000
vt 0.728745 0.000000
vt 0.758899 0.027478
vt 0.758899 0.969157
vt 0.728745 1.000000
vt 0.480317 1.000000
vt 0.449186 0.969157
vt 0.758899 0.511915
vt 0.380749 0.511915
vt 0.758899 0.636537
vt 0.449186 0.636537
vt 0.805445 0.000000
vt 0.805445 0.030967
vt 0.791361 0.030967
vt 0.791361 0.000000
vt 0.805445 0.354830
vt 0.791361 0.354830
vt 0.805445 0.388349
vt 0.791361 0.388349
vt 0.806292 0.322295
vt 0.806292 0.289899
vt 0.820564 0.289899
vt 0.820564 0.322295
vt 0.806292 0.031379
vt 0.820564 0.031379
vt 0.806292 0.000000
vt 0.820564 0.000000
vt 0.775340 0.000000
vt 0.775340 0.488931
vt 0.761498 0.488931
vt 0.761498 0.000000
vt 0.776430 0.484437
vt 0.776430 0.000000
vt 0.790144 0.000000
vt 0.790144 0.484437
vt 0.775340 0.614710
vt 0.775340 0.950416
vt 0.761498 0.950416
vt 0.761498 0.614710
vt 0.776430 0.941679
vt 0.776430 0.609059
vt 0.790144 0.609059
vt 0.790144 0.941679
vn -0.000000 0.000000 1.000000
vn -0.000000 0.000000 1.000000
vn -0.000001 0.000000 1.000000
vn -0.000001 0.000000 1.000000
vn -0.000000 0.000000 1.000000
vn -0.000000 0.000000 1.000000
vn -0.000001 0.000000 1.000000
vn -0.000001 0.000000 1.000000
vn 0.000000 0.000000 1.000000
vn 0.000000 0.000000 1.000000
vn 0.000000 0.000000 1.000000
vn 0.000000 0.000000 1.000000
vn 0.000000 0.000000 -1.000000
vn 0.000000 0.000000 -1.000000
vn 0.000000 0.000000 -1.000000
vn 0.000000 0.000000 -1.000000
vn 0.000000 0.000000 -1.000000
vn 0.000000 0.000000 -1.000000
vn 0.000000 0.000000 -1.000000
vn 0.000000 0.000000 -1.000000
vn 0.000000 0.000000 -1.000000
vn 0.000000 0.000000 -1.000000
vn 0.000000 0.000000 -1.000000
vn 0.000000 0.000000 -1.000000
vn 0.739137 -0.673555 0.000000
vn 0.739137 -0.673555 0.000000
vn 0.739137 -0.673555 0.000000
vn 0.739137 -0.673555 0.000000
vn 1.000000 0.000000 0.000000
vn 1.000000 0.000000 0.000000
vn 1.000000 0.000000 0.000000
vn 1.000000 0.000000 0.000000
vn 0.764983 0.644050 0.000000
vn 0.764983 0.644050 0.000000
vn 0.764983 0.644050 0.000000
vn 0.764983 0.644050 0.000000
vn -0.710391 0.703808 0.000003
vn -0.710391 0.703808 0.000003
vn -0.710391 0.703808 0.000003
vn -0.710391 0.703808 0.000003
vn -1.000000 0.000000 0.000007
vn -1.000000 0.000000 0.000007
vn -1.000000 0.000000 0.000007
vn -1.000000 0.000000 0.000007
vn -0.699078 -0.715045 0.000004
vn -0.699078 -0.715045 0.000004
vn -0.699078 -0.715045 0.000004
vn -0.699078 -0.715045 0.000004
vn 0.000000 1.000000 0.000000
vn -0.111662 0.993746 0.000000
vn -0.111662 0.993746 0.000000
vn 0.000000 1.000000 0.000000
vn 0.000000 -1.000000 0.000000
vn 0.000000 -1.000000 0.000000
vn 0.000000 -1.000000 0.000000
vn 0.000000 -1.000000 0.000000
vn -0.148024 0.988984 0.000000
vn 0.000000 1.000000 0.000000
vn 0.000000 1.000000 0.000000
vn -0.148024 0.988984 0.000000
vn 0.000000 -1.000000 0.000001
vn 0.000000 -1.000000 0.000000
vn 0.000000 -1.000000 0.000000
vn 0.000000 -1.000000 0.000001
s 1
g polySurface1 polySurface4
usemtl lambert7SG
f 53/115/127 54/116/128 55/117/129 56/118/130
f 58/119/131 57/120/132 59/121/133 60/122/134
f 53/115/127 61/123/135 62/124/136 54/116/128
f 64/125/137 63/126/138 57/120/132 58/119/131
f 62/124/136 61/123/135 63/126/138 64/125/137
s 3
f 46/127/139 48/128/140 50/129/141 47/130/142
f 44/131/143 49/132/144 45/133/145 43/134/146
f 46/127/139 47/130/142 52/135/147 41/136/148
f 51/137/149 44/131/143 43/134/146 42/138/150
f 52/135/147 51/137/149 42/138/150 41/136/148
s off
f 47/139/151 50/140/152 55/141/153 54/142/154
f 50/140/155 48/143/156 56/144/157 55/141/158
f 48/143/159 46/145/160 53/146/161 56/144/162
f 43/147/163 45/148/164 59/149/165 57/150/166
f 45/148/167 49/151/168 60/152/169 59/149/170
f 49/151/171 44/153/172 58/154/173 60/152/174
s 5
f 46/155/175 41/156/176 61/157/177 53/158/178
s 6
f 52/159/179 47/160/180 54/161/181 62/162/182
s 5
f 42/163/183 43/164/184 57/165/185 63/166/186
s 6
f 44/167/187 51/168/188 64/169/189 58/170/190
s 5
f 41/156/176 42/163/183 63/166/186 61/157/177
s 6
f 51/168/188 52/159/179 62/162/182 64/169/189
g default
v -31.648678 4.813174 -76.940765
v 16.639114 4.813174 -76.940765
v -31.648678 31.927084 -76.940765
v 16.639114 31.927084 -76.940765
v -31.648678 31.927084 -82.610420
v 16.639114 31.927084 -82.610420
v -31.648678 4.813174 -82.610420
v 16.639114 4.813174 -82.610420
v 16.639114 26.484400 -76.940765
v -31.648678 26.484400 -76.940765
v -31.648678 26.484402 -82.610420
v 16.639114 26.484402 -82.610420
v -31.648678 4.813174 -63.058666
v 16.639114 4.813174 -63.058666
v 16.639114 26.484400 -63.058666
v -31.648678 26.484400 -63.058666
v -30.948677 5.359834 -63.058666
v -30.948677 25.937738 -63.058666
v 15.939115 5.359834 -63.058666
v 15.939115 25.937738 -63.058666
v -30.948677 5.359834 -82.314438
v -30.948677 25.937738 -82.314438
v 15.939115 5.359834 -82.314438
v 15.939115 25.937738 -82.314438
vt 0.906825 0.500000
vt 0.906825 0.000000
vt 0.965532 0.000000
vt 0.965532 0.500000
vt 0.497944 0.500000
vt 0.497944 0.000000
vt 0.556651 0.000000
vt 0.556651 0.500000
vt 0.143743 0.724397
vt 0.143743 0.500000
vt 0.202450 0.500000
vt 0.202450 0.724397
vt 0.485799 0.500000
vt 0.544506 0.500000
vt 0.544506 0.724397
vt 0.485799 0.724397
vt 0.910873 0.500000
vt 0.969580 0.500000
vt 0.969580 0.556357
vt 0.910873 0.556357
vt 0.000000 0.500000
vt 0.000000 0.000000
vt 0.056357 0.000000
vt 0.056357 0.500000
vt 0.850148 0.500000
vt 0.908855 0.500000
vt 0.908855 0.556356
vt 0.850148 0.556356
vt 0.280753 0.000000
vt 0.280753 0.500000
vt 0.700394 0.000000
vt 0.700394 0.500000
vt 0.000000 0.724397
vt 0.000000 0.500000
vt 0.848152 0.485504
vt 0.848152 0.985504
vt 0.704409 0.985504
vt 0.704409 0.485504
vt 0.688249 0.500000
vt 0.688249 0.724397
vt 0.496458 0.485504
vt 0.283383 0.485504
vt 0.283383 0.000000
vt 0.496458 0.000000
vt 0.262821 0.500000
vt 0.262821 1.000000
vt 0.206465 1.000000
vt 0.206465 0.500000
vt 0.487537 0.978256
vt 0.263141 0.978256
vt 0.268802 0.971008
vt 0.481876 0.971008
vt 0.975646 0.500001
vt 0.975646 0.000000
vt 0.981307 0.007248
vt 0.981307 0.492752
vt 0.263141 0.978256
vt 0.487538 0.978256
vt 0.481877 0.985504
vt 0.268802 0.985504
vt 0.973210 0.000000
vt 0.973210 0.499996
vt 0.967550 0.492748
vt 0.967550 0.007248
vt 0.485799 0.937472
vt 0.485799 0.724397
vt 0.685185 0.724397
vt 0.685185 0.937472
vt 0.283383 0.971008
vt 0.283383 0.485504
vt 0.482768 0.485504
vt 0.482768 0.971008
vt 0.199386 0.724397
vt 0.199386 0.937472
vt 0.000000 0.937472
vt 0.000000 0.724397
vt 0.903794 0.000000
vt 0.903794 0.485504
vt 0.704409 0.485504
vt 0.704409 0.000000
vn 0.000000 1.000000 0.000000
vn 0.000000 1.000000 0.000000
vn 0.000000 1.000000 0.000000
vn 0.000000 1.000000 0.000000
vn 0.000000 -1.000000 0.000000
vn 0.000000 -1.000000 0.000000
vn 0.000000 -1.000000 0.000000
vn 0.000000 -1.000000 0.000000
vn 1.000000 0.000000 0.000000
vn 1.000000 0.000000 0.000000
vn 1.000000 0.000000 0.000000
vn 1.000000 0.000000 0.000000
vn -1.000000 0.000000 0.000000
vn -1.000000 0.000000 0.000000
vn -1.000000 0.000000 0.000000
vn -1.000000 0.000000 0.000000
vn -1.000000 0.000000 0.000000
vn -1.000000 0.000000 0.000000
vn -1.000000 0.000000 0.000000
vn -1.000000 0.000000 0.000000
vn 0.000000 0.000000 -1.000000
vn 0.000000 0.000000 -1.000000
vn 0.000000 0.000000 -1.000000
vn 0.000000 0.000000 -1.000000
vn 1.000000 0.000000 0.000000
vn 1.000000 0.000000 0.000000
vn 1.000000 0.000000 0.000000
vn 1.000000 0.000000 0.000000
vn 0.000000 0.000000 -1.000000
vn 0.000000 0.000000 -1.000000
vn 0.000000 0.000000 -1.000000
vn 0.000000 0.000000 -1.000000
vn 0.000000 -1.000000 0.000000
vn 0.000000 -1.000000 0.000000
vn 0.000000 -1.000000 0.000000
vn 0.000000 -1.000000 0.000000
vn 1.000000 0.000000 0.000000
vn 1.000000 0.000000 0.000000
vn 1.000000 0.000000 0.000000
vn 1.000000 0.000000 0.000000
vn 0.000000 1.000000 0.000000
vn 0.000000 1.000000 0.000000
vn 0.000000 1.000000 0.000000
vn 0.000000 1.000000 0.000000
vn -1.000000 0.000000 0.000000
vn -1.000000 0.000000 0.000000
vn -1.000000 0.000000 0.000000
vn -1.000000 0.000000 0.000000
vn 0.000000 0.000000 1.000000
vn 0.000000 0.000000 1.000000
vn 0.000000 0.000000 1.000000
vn 0.000000 0.000000 1.000000
vn 0.000000 0.000000 1.000000
vn 0.000000 0.000000 1.000000
vn 0.000000 0.000000 1.000000
vn 0.000000 0.000000 1.000000
vn -0.000002 0.000000 1.000000
vn -0.000002 0.000000 1.000000
vn 0.000000 0.000000 1.000000
vn 0.000000 0.000000 1.000000
vn 0.000004 0.000000 1.000000
vn 0.000000 0.000000 1.000000
vn 0.000004 0.000000 1.000000
vn 0.000000 0.000000 1.000000
vn 0.000000 0.000000 1.000000
vn 0.000000 0.000000 1.000000
vn 0.000000 0.000000 1.000000
vn 0.000000 0.000000 1.000000
vn 0.000000 0.000000 1.000000
vn 0.000000 0.000000 1.000000
vn 0.000000 0.000000 1.000000
vn 0.000000 0.000000 1.000000
vn 0.000000 0.000000 1.000000
vn 0.000000 0.000000 1.000000
vn 0.000000 0.000000 1.000000
vn 0.000000 0.000000 1.000000
vn 0.000000 0.000000 1.000000
vn 0.000000 0.000000 1.000000
vn 0.000000 0.000000 1.000000
vn 0.000000 0.000000 1.000000
s off
g polySurface2 pCube76
usemtl lambert5SG
f 67/171/191 68/172/192 70/173/193 69/174/194
f 71/175/195 72/176/196 66/177/197 65/178/198
f 73/179/199 66/180/200 72/181/201 76/182/202
f 71/183/203 65/184/204 74/185/205 75/186/206
f 75/187/207 74/188/208 67/189/209 69/190/210
f 69/191/211 70/192/212 76/193/213 75/194/214
f 73/195/215 76/196/216 70/197/217 68/198/218
f 72/199/219 71/200/220 75/194/221 76/193/222
f 65/178/223 66/177/224 78/201/225 77/202/226
f 66/180/227 73/179/228 79/203/229 78/204/230
f 73/205/231 74/206/232 80/207/233 79/208/234
f 74/185/235 65/184/236 77/209/237 80/210/238
f 86/211/239 85/212/240 87/213/241 88/214/242
f 68/215/243 67/216/244 74/217/245 73/218/246
s 1
f 80/219/247 77/220/248 81/221/249 82/222/250
f 77/223/248 78/224/251 83/225/252 81/226/249
f 78/227/251 79/228/253 84/229/254 83/230/252
f 79/231/253 80/232/247 82/233/250 84/234/254
s off
f 82/235/255 81/236/256 85/237/257 86/238/258
f 81/239/259 83/240/260 87/241/261 85/242/262
f 83/243/263 84/244/264 88/245/265 87/246/266
f 84/247/267 82/248/268 86/249/269 88/250/270
