# This file uses centimeters as units for non-parametric coordinates.

mtllib sky.mtl
g default
v -31.648672 28.035248 14.812831
v 31.648672 28.035248 14.812831
v -31.648672 29.385473 14.812831
v 31.648672 29.385473 14.812831
v -31.648672 29.385473 -82.659081
v 31.648672 29.385473 -82.659081
v -31.648672 28.035248 -82.659081
v 31.648672 28.035248 -82.659081
v 22.209940 33.430656 14.812831
v 22.209940 33.430656 -82.659081
v 22.209944 32.080429 -82.659081
v 22.209944 32.080429 14.812831
v -22.209951 33.430656 14.812831
v -22.209951 33.430656 -82.659081
v -22.209949 32.080429 -82.659081
v -22.209949 32.080429 14.812831
v -28.428053 29.383644 14.812831
v -28.428053 30.733871 14.812831
v -28.428053 30.733871 -82.659081
v -28.428053 29.383644 -82.659081
v 28.428049 30.733871 14.812831
v 28.428049 30.733871 -82.659081
v 28.428049 29.383644 -82.659081
v 28.428049 29.383644 14.812831
v -31.648672 26.485802 -82.659081
v -28.492350 26.485813 -82.659081
v -28.492350 26.485813 14.812831
v -31.648672 26.485802 14.812831
v 28.492334 26.485102 -82.659081
v 28.492350 26.485813 14.812831
v 31.648672 26.485802 -82.659081
v 31.648672 26.485802 14.812831
v 16.639112 32.080429 -82.659081
v -31.648672 29.385473 -76.940758
v -28.428053 30.733871 -76.940758
v -22.209951 33.430656 -76.940758
v 22.209940 33.430656 -76.940758
v 28.428049 30.733871 -76.940758
v 31.648672 29.385473 -76.940758
v 31.648672 28.035248 -76.940758
v 31.648672 26.485802 -76.940758
v 28.492338 26.485102 -76.940758
v 28.428049 29.383644 -76.940758
v 22.209944 32.080429 -76.940758
v 16.639111 32.080429 -76.940758
v -22.209949 32.080429 -76.940758
v -28.428053 29.383644 -76.940758
v -28.492350 26.485813 -76.940758
v -31.648672 26.485802 -76.940758
v -31.648672 28.035248 -76.940758
v 22.216591 26.484413 -76.940758
v 22.216587 26.484413 -82.659081
v 16.639111 26.484413 -76.940758
v 16.639112 26.484413 -82.659081
vt 0.958566 0.038136
vt 0.949561 0.038136
vt 0.949561 0.000000
vt 0.958566 0.000000
vt 0.958566 0.650047
vt 0.949562 0.650047
vt 0.939228 0.038136
vt 0.939228 0.000000
vt 0.939228 0.650047
vt 0.970280 0.650047
vt 0.970280 0.611911
vt 0.979285 0.611911
vt 0.979285 0.650047
vt 0.959946 0.611911
vt 0.959946 0.650047
vt 0.970280 0.000000
vt 0.979285 0.000000
vt 0.959946 0.000000
vt 0.937857 0.000000
vt 0.937856 0.038136
vt 0.918525 0.038136
vt 0.918526 0.000000
vt 0.937840 0.650048
vt 0.918510 0.650047
vt 0.980667 0.000000
vt 0.999998 0.000000
vt 1.000000 0.611912
vt 0.980665 0.611912
vt 0.893675 0.179150
vt 0.893675 0.217286
vt 0.856355 0.217286
vt 0.856355 0.179150
vt 0.000007 0.611911
vt 0.023292 0.611916
vt 0.023285 0.650052
vt 0.000000 0.650047
vt 0.000120 0.000000
vt 0.023406 0.000004
vt 0.068493 0.611924
vt 0.068486 0.650060
vt 0.068607 0.000013
vt 0.364733 0.611979
vt 0.364726 0.650115
vt 0.364846 0.000068
vt 0.409934 0.611987
vt 0.409927 0.650123
vt 0.410047 0.000076
vt 0.433219 0.611992
vt 0.433212 0.650128
vt 0.433332 0.000080
vt 0.894339 0.000000
vt 0.915388 0.000000
vt 0.915388 0.038136
vt 0.894339 0.038136
vt 0.915388 0.650048
vt 0.894339 0.650048
vt 0.783054 0.038136
vt 0.783054 0.000000
vt 0.824908 0.000000
vt 0.824908 0.038136
vt 0.745858 0.038136
vt 0.745858 0.000000
vt 0.845958 0.038136
vt 0.845958 0.000000
vt 0.845958 0.650048
vt 0.824908 0.650048
vt 0.739470 0.038185
vt 0.480383 0.038143
vt 0.480389 0.000007
vt 0.739476 0.000049
vt 0.776524 0.650102
vt 0.480285 0.650055
vt 0.776622 0.038191
vt 0.435182 0.038136
vt 0.435188 0.000000
vt 0.435084 0.650047
vt 0.821725 0.650109
vt 0.821823 0.038198
vt 0.856329 0.834206
vt 0.865322 0.812728
vt 0.874327 0.812728
vt 0.865334 0.834206
vt 0.845996 0.834206
vt 0.845996 0.813157
vt 0.883307 0.771259
vt 0.892312 0.771259
vt 0.883307 0.475019
vt 0.892312 0.475019
vt 0.865322 0.433550
vt 0.874327 0.433550
vt 0.856329 0.412071
vt 0.865334 0.412071
vt 0.845996 0.433121
vt 0.845996 0.412071
vt 0.872974 0.422135
vt 0.863981 0.400656
vt 0.872986 0.400656
vt 0.881978 0.422135
vt 0.845996 0.359187
vt 0.855001 0.359187
vt 0.892312 0.401085
vt 0.892312 0.422135
vt 0.855001 0.100100
vt 0.845996 0.062948
vt 0.855001 0.062948
vt 0.863981 0.021479
vt 0.872986 0.021479
vt 0.892321 0.062903
vt 0.892321 0.100100
vt 0.872974 0.000000
vt 0.881978 0.000000
vt 0.892316 0.021050
vt 0.892312 0.000000
vt 0.893675 0.141997
vt 0.856355 0.141953
vt 0.856360 0.100100
vt 0.875690 0.100528
vt 0.893675 0.179150
vt 0.856355 0.179150
vn 0.000000 0.000000 1.000000
vn 0.000000 0.000000 1.000000
vn 0.000000 0.000000 1.000000
vn 0.000000 0.000000 1.000000
vn -0.386194 0.922418 0.000000
vn -0.391963 0.919981 0.000000
vn -0.391963 0.919981 0.000000
vn -0.386195 0.922417 0.000000
vn 0.000000 0.000000 -1.000000
vn 0.000000 0.000000 -1.000000
vn 0.000000 0.000000 -1.000000
vn 0.000001 0.000000 -1.000000
vn 0.000004 -1.000000 0.000000
vn 0.000004 -1.000000 0.000000
vn 0.000004 -1.000000 0.000000
vn 0.000004 -1.000000 0.000000
vn 1.000000 0.000000 0.000000
vn 1.000000 0.000000 0.000000
vn 1.000000 0.000000 0.000000
vn 1.000000 0.000000 0.000000
vn -1.000000 0.000000 0.000000
vn -1.000000 0.000000 0.000000
vn -1.000000 0.000000 0.000000
vn -1.000000 0.000000 0.000000
vn 0.153506 0.988148 0.000000
vn 0.153506 0.988148 0.000000
vn 0.391962 0.919981 0.000000
vn 0.391962 0.919981 0.000000
vn 0.000000 0.000000 -1.000000
vn 0.000000 0.000000 -1.000000
vn 0.000000 0.000000 -1.000000
vn -0.000002 0.000000 -1.000000
vn -0.000003 -1.000000 0.000000
vn -0.000003 -1.000000 0.000000
vn 0.000219 -1.000000 0.000000
vn 0.000219 -1.000000 0.000000
vn 0.000000 0.000000 1.000000
vn 0.000000 0.000000 1.000000
vn 0.000000 0.000000 1.000000
vn 0.000000 0.000000 1.000000
vn -0.032120 0.999484 0.000000
vn -0.032120 0.999484 0.000000
vn 0.153506 0.988148 0.000000
vn 0.153506 0.988148 0.000000
vn 0.000000 0.000000 -1.000000
vn 0.000000 0.000000 -1.000000
vn 0.000000 0.000000 -1.000000
vn 0.000000 0.000000 -1.000000
vn 0.000000 0.000000 -1.000000
vn 0.000000 -1.000000 0.000000
vn 0.000000 -1.000000 0.000000
vn 0.000000 -1.000000 0.000000
vn 0.000000 -1.000000 0.000000
vn 0.000000 0.000000 1.000000
vn 0.000000 0.000000 1.000000
vn 0.000000 0.000000 1.000000
vn 0.000000 0.000000 1.000000
vn 0.000000 0.000000 1.000000
vn 0.000000 0.000000 1.000000
vn 0.000000 0.000000 1.000000
vn 0.000000 0.000000 1.000000
vn -0.032120 0.999484 0.000000
vn -0.032120 0.999484 0.000000
vn -0.391963 0.919981 0.000000
vn -0.391963 0.919981 0.000000
vn 0.000000 0.000000 -1.000000
vn 0.000000 0.000000 -1.000000
vn 0.000000 0.000000 -1.000000
vn 0.000000 0.000000 -1.000000
vn 0.397891 -0.917433 0.000000
vn 0.397891 -0.917433 0.000000
vn 0.397889 -0.917434 0.000000
vn 0.397889 -0.917434 0.000000
vn 0.391962 0.919981 0.000000
vn 0.386194 0.922418 0.000000
vn 0.386194 0.922418 0.000000
vn 0.391962 0.919981 0.000000
vn -0.000002 0.000000 -1.000000
vn 0.000000 0.000000 -1.000000
vn 0.000000 0.000000 -1.000000
vn 0.000000 0.000000 -1.000000
vn 0.000116 -1.000000 0.000004
vn 0.000116 -1.000000 0.000004
vn 0.000222 -1.000000 0.000000
vn 0.000222 -1.000000 0.000000
vn 0.000000 0.000000 1.000000
vn 0.000000 0.000000 1.000000
vn 0.000000 0.000000 1.000000
vn 0.000000 0.000000 1.000000
vn 0.000001 0.000000 -1.000000
vn 0.000000 0.000000 -1.000000
vn 0.000001 0.000000 -1.000000
vn 0.000001 0.000000 -1.000000
vn 0.999754 -0.022182 0.000000
vn 0.999754 -0.022182 0.000000
vn 0.999754 -0.022182 0.000000
vn 0.999754 -0.022182 0.000000
vn 0.000000 0.000000 1.000000
vn 0.000000 0.000000 1.000000
vn 0.000000 0.000000 1.000000
vn 0.000000 0.000000 1.000000
vn -1.000000 0.000000 0.000000
vn -1.000000 0.000000 0.000000
vn -1.000000 0.000000 0.000000
vn -1.000000 0.000000 0.000000
vn -0.000002 0.000000 -1.000000
vn 0.000000 0.000000 -1.000000
vn 0.000000 0.000000 -1.000000
vn 0.000000 0.000000 -1.000000
vn 1.000000 0.000000 0.000000
vn 1.000000 0.000000 0.000000
vn 1.000000 0.000000 0.000000
vn 1.000000 0.000000 0.000000
vn 0.000000 0.000000 1.000000
vn 0.000000 0.000000 1.000000
vn 0.000000 0.000000 1.000000
vn 0.000000 0.000000 1.000000
vn 0.000000 -1.000000 0.000000
vn 0.000000 -1.000000 0.000000
vn 0.000000 -1.000000 0.000000
vn 0.000000 -1.000000 0.000000
vn -0.386194 0.922418 0.000000
vn -0.391963 0.919981 0.000000
vn -0.391963 0.919981 0.000000
vn -0.386194 0.922418 0.000000
vn -0.391963 0.919981 0.000000
vn -0.032120 0.999484 0.000000
vn -0.032120 0.999484 0.000000
vn -0.391963 0.919981 0.000000
vn -0.032120 0.999484 0.000000
vn -0.032120 0.999484 0.000000
vn 0.153506 0.988148 0.000000
vn 0.153506 0.988148 0.000000
vn 0.153506 0.988148 0.000000
vn 0.391962 0.919981 0.000000
vn 0.391962 0.919981 0.000000
vn 0.153506 0.988148 0.000000
vn 0.391962 0.919981 0.000000
vn 0.386194 0.922418 0.000000
vn 0.386194 0.922418 0.000000
vn 0.391962 0.919981 0.000000
vn 1.000000 0.000000 0.000000
vn 1.000000 0.000000 0.000000
vn 1.000000 0.000000 0.000000
vn 1.000000 0.000000 0.000000
vn 1.000000 0.000000 0.000000
vn 1.000000 0.000000 0.000000
vn 1.000000 0.000000 0.000000
vn 1.000000 0.000000 0.000000
vn 0.000109 -1.000000 0.000004
vn 0.000109 -1.000000 0.000004
vn 0.000116 -1.000000 0.000004
vn 0.000116 -1.000000 0.000004
vn -0.999754 -0.022179 0.000000
vn -0.999754 -0.022179 0.000000
vn -0.999754 -0.022179 0.000000
vn -0.999754 -0.022179 0.000000
vn -0.397889 -0.917434 0.000000
vn -0.397890 -0.917433 0.000000
vn -0.397890 -0.917433 0.000000
vn -0.397889 -0.917434 0.000000
vn 0.000000 -1.000000 0.000000
vn 0.000000 -1.000000 0.000000
vn 0.000000 -1.000000 0.000000
vn 0.000000 -1.000000 0.000000
vn 0.000000 -1.000000 0.000000
vn 0.397891 -0.917433 0.000000
vn 0.397889 -0.917434 0.000000
vn 0.397889 -0.917434 0.000000
vn 0.397891 -0.917433 0.000000
vn 0.999754 -0.022182 0.000000
vn 0.999754 -0.022182 0.000000
vn 0.999754 -0.022182 0.000000
vn 0.999754 -0.022182 0.000000
vn 0.000004 -1.000000 0.000000
vn 0.000004 -1.000000 0.000000
vn 0.000004 -1.000000 0.000000
vn 0.000004 -1.000000 0.000000
vn -1.000000 0.000000 0.000000
vn -1.000000 0.000000 0.000000
vn -1.000000 0.000000 0.000000
vn -1.000000 0.000000 0.000000
vn -1.000000 0.000000 0.000000
vn -1.000000 0.000000 0.000000
vn -1.000000 0.000000 0.000000
vn -1.000000 0.000000 0.000000
vn 0.000000 0.000000 1.000000
vn 0.000000 0.000000 1.000000
vn -0.000002 0.000000 1.000000
vn -0.000002 0.000000 1.000000
vn -0.000003 0.000000 -1.000000
vn 0.000001 0.000000 -1.000000
vn 0.000000 0.000000 -1.000000
vn -0.000002 0.000000 -1.000000
vn 0.000000 0.000000 1.000000
vn 0.000000 0.000000 1.000000
vn 0.000000 0.000000 1.000000
vn 0.000000 0.000000 1.000000
vn -1.000000 0.000000 -0.000000
vn -1.000000 0.000000 -0.000000
vn -1.000000 0.000000 -0.000000
vn -1.000000 0.000000 -0.000000
vn 0.000000 0.000000 -1.000000
vn 0.000000 0.000000 -1.000000
vn 0.000001 0.000000 -1.000000
vn 0.000000 0.000000 -1.000000
s off
g pCube65
usemtl lambert2SG
f 1/79/1 17/80/2 18/81/3 3/82/4
f 34/33/5 35/34/6 19/35/7 5/36/8
f 5/95/9 19/96/10 20/97/11 7/98/12
f 25/51/13 26/52/14 48/53/15 49/54/16
f 39/1/17 40/2/18 8/3/19 6/4/20
f 7/10/21 50/11/22 34/12/23 5/13/24
f 10/43/25 37/42/26 38/45/27 22/46/28
f 11/105/29 10/104/30 22/106/31 23/107/32
f 51/57/33 52/58/34 29/59/35 42/60/36
f 9/88/37 12/87/38 24/89/39 21/90/40
f 14/40/41 36/39/42 37/42/43 10/43/44
f 33/103/45 15/100/46 14/99/47 10/104/48 11/105/49
f 45/67/50 46/68/51 15/69/52 33/70/53
f 13/86/54 16/85/55 12/87/56 9/88/57
f 16/85/58 13/86/59 18/81/60 17/80/61
f 36/39/62 14/40/63 19/35/64 35/34/65
f 14/99/66 15/100/67 20/97/68 19/96/69
f 15/69/70 46/68/71 47/74/72 20/75/73
f 38/45/74 39/48/75 6/49/76 22/46/77
f 23/107/78 22/106/79 6/110/80 8/111/81
f 41/63/82 42/60/83 29/59/84 31/64/85
f 21/90/86 24/89/87 2/91/88 4/92/89
f 7/98/90 20/97/91 26/101/92 25/102/93
f 20/19/94 47/20/95 48/21/96 26/22/97
f 17/80/98 1/79/99 28/83/100 27/84/101
f 49/14/102 50/11/103 7/10/104 25/15/105
f 23/107/106 8/111/107 31/113/108 29/112/109
f 8/3/110 40/2/111 41/7/112 31/8/113
f 2/91/114 24/89/115 30/93/116 32/94/117
f 51/57/118 53/61/119 54/62/120 52/58/121
f 3/37/122 18/38/123 35/34/124 34/33/125
f 18/38/126 13/41/127 36/39/128 35/34/129
f 36/39/130 13/41/131 9/44/132 37/42/133
f 9/44/134 21/47/135 38/45/136 37/42/137
f 21/47/138 4/50/139 39/48/140 38/45/141
f 4/5/142 2/6/143 40/2/144 39/1/145
f 2/6/146 32/9/147 41/7/148 40/2/149
f 32/65/150 30/66/151 42/60/152 41/63/153
f 30/25/154 24/26/155 43/27/156 42/28/157
f 24/77/158 12/71/159 44/73/160 43/78/161
f 12/71/162 16/72/163 46/68/164 45/67/165 44/73/166
f 16/72/167 17/76/168 47/74/169 46/68/170
f 17/23/171 27/24/172 48/21/173 47/20/174
f 27/55/175 28/56/176 49/54/177 48/53/178
f 28/18/179 1/16/180 50/11/181 49/14/182
f 1/16/183 3/17/184 34/12/185 50/11/186
f 44/114/187 51/115/188 42/116/189 43/117/190
f 29/112/191 52/108/192 11/105/193 23/107/194
f 44/114/195 45/118/196 53/119/197 51/115/198
f 45/29/199 33/30/200 54/31/201 53/32/202
f 33/103/203 11/105/204 52/108/205 54/109/206
