# This file uses centimeters as units for non-parametric coordinates.

mtllib zoomglass.mtl
g default
v 20.714121 5.423622 -79.319851
v 22.719726 5.423622 -79.319851
v 20.714121 7.576108 -79.319851
v 22.719726 7.576108 -79.319851
v 20.714121 7.576108 -79.371209
v 22.719726 7.576108 -79.371209
v 20.714121 5.423622 -79.371209
v 22.719726 5.423622 -79.371209
vt 0.577537 0.000000
vt 0.763687 0.000000
vt 0.763687 0.199783
vt 0.577537 0.199783
vt 0.205178 0.930965
vt 0.205178 0.744813
vt 0.209944 0.744813
vt 0.209944 0.930965
vt 0.577537 0.199783
vt 0.763687 0.199783
vt 0.763687 0.399567
vt 0.577537 0.399567
vt 0.030397 0.935851
vt 0.030397 0.749701
vt 0.035163 0.749701
vt 0.035163 0.935851
vt 0.045595 0.744813
vt 0.050362 0.744813
vt 0.050362 0.944596
vt 0.045595 0.944596
vt 0.060793 0.747006
vt 0.065560 0.747006
vt 0.065560 0.946790
vt 0.060793 0.946790
vn 0.000000 0.000000 1.000000
vn 0.000000 0.000000 1.000000
vn 0.000000 0.000000 1.000000
vn 0.000000 0.000000 1.000000
vn 0.000000 1.000000 0.000000
vn 0.000000 1.000000 0.000000
vn 0.000000 1.000000 0.000000
vn 0.000000 1.000000 0.000000
vn 0.000000 0.000000 -1.000000
vn 0.000000 0.000000 -1.000000
vn 0.000000 0.000000 -1.000000
vn 0.000000 0.000000 -1.000000
vn 0.000000 -1.000000 0.000000
vn 0.000000 -1.000000 0.000000
vn 0.000000 -1.000000 0.000000
vn 0.000000 -1.000000 0.000000
vn 1.000000 0.000000 0.000000
vn 1.000000 0.000000 0.000000
vn 1.000000 0.000000 0.000000
vn 1.000000 0.000000 0.000000
vn -1.000000 0.000000 0.000000
vn -1.000000 0.000000 0.000000
vn -1.000000 0.000000 0.000000
vn -1.000000 0.000000 0.000000
s off
g polySurface5polySurface19
usemtl initialShadingGroup
f 1/1/1 2/2/2 4/3/3 3/4/4
f 3/5/5 4/6/6 6/7/7 5/8/8
f 5/9/9 6/10/10 8/11/11 7/12/12
f 7/13/13 8/14/14 2/15/15 1/16/16
f 2/17/17 8/18/18 6/19/19 4/20/20
f 7/21/21 1/22/22 3/23/23 5/24/24
g default
v 18.578460 5.423622 -79.319851
v 20.584064 5.423622 -79.319851
v 18.578460 7.576108 -79.319851
v 20.584064 7.576108 -79.319851
v 18.578460 7.576108 -79.371209
v 20.584064 7.576108 -79.371209
v 18.578460 5.423622 -79.371209
v 20.584064 5.423622 -79.371209
vt 0.577537 0.399567
vt 0.763687 0.399567
vt 0.763687 0.599350
vt 0.577537 0.599350
vt 0.197578 0.930965
vt 0.197578 0.744813
vt 0.202345 0.744813
vt 0.202345 0.930965
vt 0.577537 0.599350
vt 0.763687 0.599350
vt 0.763687 0.799134
vt 0.577537 0.799134
vt 0.212777 0.930963
vt 0.212777 0.744813
vt 0.217544 0.744813
vt 0.217544 0.930963
vt 0.037996 0.744813
vt 0.042763 0.744813
vt 0.042763 0.944598
vt 0.037996 0.944598
vt 0.053194 0.744813
vt 0.057961 0.744813
vt 0.057961 0.944596
vt 0.053194 0.944596
vn 0.000000 0.000000 1.000000
vn 0.000000 0.000000 1.000000
vn 0.000000 0.000000 1.000000
vn 0.000000 0.000000 1.000000
vn 0.000000 1.000000 0.000000
vn 0.000000 1.000000 0.000000
vn 0.000000 1.000000 0.000000
vn 0.000000 1.000000 0.000000
vn 0.000000 0.000000 -1.000000
vn 0.000000 0.000000 -1.000000
vn 0.000000 0.000000 -1.000000
vn 0.000000 0.000000 -1.000000
vn 0.000000 -1.000000 0.000000
vn 0.000000 -1.000000 0.000000
vn 0.000000 -1.000000 0.000000
vn 0.000000 -1.000000 0.000000
vn 1.000000 0.000000 0.000000
vn 1.000000 0.000000 0.000000
vn 1.000000 0.000000 0.000000
vn 1.000000 0.000000 0.000000
vn -1.000000 0.000000 0.000000
vn -1.000000 0.000000 0.000000
vn -1.000000 0.000000 0.000000
vn -1.000000 0.000000 0.000000
s off
g polySurface21polySurface5
usemtl initialShadingGroup
f 9/25/25 10/26/26 12/27/27 11/28/28
f 11/29/29 12/30/30 14/31/31 13/32/32
f 13/33/33 14/34/34 16/35/35 15/36/36
f 15/37/37 16/38/38 10/39/39 9/40/40
f 10/41/41 16/42/42 14/43/43 12/44/44
f 15/45/45 9/46/46 11/47/47 13/48/48
